<?xml version="1.0" encoding="UTF-8" standalone="no"?>
<!-- Created with Inkscape (http://www.inkscape.org/) -->

<svg
   xmlns:dc="http://purl.org/dc/elements/1.1/"
   xmlns:cc="http://creativecommons.org/ns#"
   xmlns:rdf="http://www.w3.org/1999/02/22-rdf-syntax-ns#"
   xmlns:svg="http://www.w3.org/2000/svg"
   xmlns="http://www.w3.org/2000/svg"
   xmlns:sodipodi="http://sodipodi.sourceforge.net/DTD/sodipodi-0.dtd"
   xmlns:inkscape="http://www.inkscape.org/namespaces/inkscape"
   width="64"
   height="64"
   viewBox="0 0 64.000001 64.000001"
   id="svg2"
   version="1.1"
   inkscape:version="0.91 r13725"
   sodipodi:docname="arvore2.svg">
  <defs
     id="defs4" />
  <sodipodi:namedview
     id="base"
     pagecolor="#ffffff"
     bordercolor="#666666"
     borderopacity="1.0"
     inkscape:pageopacity="0.0"
     inkscape:pageshadow="2"
     inkscape:zoom="3.6125109"
     inkscape:cx="68.214905"
     inkscape:cy="6.6551126"
     inkscape:document-units="px"
     inkscape:current-layer="layer1"
     showgrid="false"
     units="px"
     inkscape:window-width="1440"
     inkscape:window-height="791"
     inkscape:window-x="0"
     inkscape:window-y="31"
     inkscape:window-maximized="1" />
  <metadata
     id="metadata7">
    <rdf:RDF>
      <cc:Work
         rdf:about="">
        <dc:format>image/svg+xml</dc:format>
        <dc:type
           rdf:resource="http://purl.org/dc/dcmitype/StillImage" />
        <dc:title></dc:title>
      </cc:Work>
    </rdf:RDF>
  </metadata>
  <g
     inkscape:label="Camada 1"
     inkscape:groupmode="layer"
     id="layer1"
     transform="translate(0,-988.36216)">
    <g
       id="g3626"
       transform="matrix(0.05044084,0,0,0.06036557,13.796833,994.98671)">
      <g
         id="g3503">
        <g
           id="g3355"
           transform="matrix(0.8723923,0,0,0.51562261,415.92522,-202.0149)">
          <path
             style="fill:#008000;fill-opacity:1"
             d="m 25.162872,294.24454 c 0,0 29.52269,9.91754 26.8632,20.02894 l -13.14068,6.47653 -26.65735,25.54011 -23.595843,25.69758 -16.910902,45.64939 -18.548825,87.37461 25.346923,119.12026 73.922947,128.87122 -5.22249,-0.8957 -5.2225,-0.89571 -5.22248,-0.89571 -5.22249,-0.89571 -84.289296,-124.2241 -25.643847,-129.49615 28.600663,-85.96926 18.481031,-48.45494 22.147723,-27.15006 23.463086,-23.91498 z"
             id="path3339"
             inkscape:connector-curvature="0"
             sodipodi:nodetypes="cccccccccccccccccccc" />
          <path
             sodipodi:nodetypes="cccccccccccccccccccc"
             inkscape:connector-curvature="0"
             id="path3341"
             d="m 40.738162,766.28021 c 0,0 -0.106794,-18.26633 8.75538,-19.9377 l 8.808447,4.84789 27.845212,6.09663 27.133499,4.46491 41.35262,-5.00786 75.36605,-16.73629 88.88232,-49.01931 83.42381,-77.095 0.70964,2.97246 0.70964,2.97247 0.70963,2.97245 0.70964,2.97247 -76.84673,81.05865 -97.14766,52.30026 -76.98822,11.11118 -44.03946,5.04095 -27.905344,-3.27777 -25.663172,-4.9335 z"
             style="fill:#008000;fill-opacity:1" />
          <path
             sodipodi:nodetypes="cccccccccccccccccccc"
             inkscape:connector-curvature="0"
             id="path3343"
             d="m 142.77237,367.08532 c 0,0 17.96743,10.71547 14.71147,15.82881 l -9.61783,1.24619 -21.35614,9.37827 -19.36332,10.00837 -17.929362,22.21489 -25.216386,44.97171 -1.030941,70.29398 29.509437,84.29755 -3.30615,-1.42124 -3.30617,-1.42124 -3.30615,-1.42123 -3.30616,-1.42125 -37.027957,-83.56968 2.379221,-76.07789 31.627226,-42.41221 19.38087,-23.48604 18.625722,-11.06755 19.01065,-9.04729 z"
             style="fill:#008000;fill-opacity:1" />
          <path
             style="fill:#008000;fill-opacity:1"
             d="m 97.375071,637.01564 c 0,0 -2.506619,-20.76937 3.530349,-21.31936 l 6.86672,6.84864 20.47876,11.165 19.75888,9.20282 28.54116,0.60472 51.00413,-7.54319 56.25402,-42.16387 48.66182,-74.89266 0.89684,3.48514 0.89686,3.48516 0.89685,3.48514 0.89684,3.48516 -43.48884,80.39703 -61.6552,44.63342 -52.89856,0.90533 -30.43451,-0.97609 -20.14603,-7.97154 -18.78275,-9.51138 z"
             id="path3345"
             inkscape:connector-curvature="0"
             sodipodi:nodetypes="cccccccccccccccccccc" />
          <path
             style="fill:#008000;fill-opacity:1"
             d="m 281.69785,211.52206 c 0,0 17.96743,10.71547 14.71147,15.82881 l -9.61783,1.24619 -21.35614,9.37827 -19.36332,10.00837 -17.92937,22.21489 -25.21638,44.97171 -1.03094,70.29398 29.50943,84.29755 -3.30615,-1.42124 -3.30617,-1.42124 -3.30615,-1.42123 -3.30616,-1.42125 -37.02795,-83.56968 2.37922,-76.07789 31.62722,-42.41221 19.38087,-23.48604 18.62573,-11.06755 19.01065,-9.04729 z"
             id="path3347"
             inkscape:connector-curvature="0"
             sodipodi:nodetypes="cccccccccccccccccccc" />
          <path
             sodipodi:nodetypes="cccccccccccccccccccc"
             inkscape:connector-curvature="0"
             id="path3349"
             d="m 236.30055,481.45238 c 0,0 -2.50662,-20.76937 3.53035,-21.31936 l 6.86672,6.84864 20.47876,11.165 19.75888,9.20282 28.54116,0.60472 51.00413,-7.54319 56.25402,-42.16387 48.66182,-74.89266 0.89684,3.48514 0.89686,3.48516 0.89685,3.48514 0.89684,3.48516 -43.48884,80.39703 -61.6552,44.63342 -52.89856,0.90533 -30.43451,-0.97609 -20.14603,-7.97154 -18.78275,-9.51138 z"
             style="fill:#008000;fill-opacity:1" />
          <path
             sodipodi:nodetypes="cccccccccccccccccccc"
             inkscape:connector-curvature="0"
             id="path3351"
             d="m 634.98631,241.95522 c 0,0 8.90283,12.59029 3.6784,13.41364 l -8.33936,-3.66675 -21.90115,-5.23243 -20.62793,-4.08175 -25.72747,1.91866 -43.2105,8.74003 -36.80495,30.48377 -19.51734,50.03144 -1.91997,-2.07445 -1.91996,-2.07446 -1.91996,-2.07444 -1.91996,-2.07446 13.12432,-53.00625 40.84505,-32.43829 47.03391,-4.80395 27.54042,-1.84194 20.57942,3.29235 19.85359,4.35014 z"
             style="fill:#008000;fill-opacity:1" />
          <path
             style="fill:#008000;fill-opacity:1"
             d="m 460.49662,345.23529 c 0,0 7.5069,-15.33051 11.34245,-13.46286 l 1.12374,7.30528 7.36415,15.368 7.78551,13.73971 16.74459,11.05132 33.66038,13.77132 51.79163,-8.27108 61.45089,-33.78601 -0.9759,2.74989 -0.97591,2.74991 -0.9759,2.7499 -0.97591,2.74991 -60.75384,39.52852 -56.08019,7.97085 -31.91266,-19.0782 -17.71183,-12.01405 -8.54979,-13.03044 -7.07015,-13.58998 z"
             id="path3353"
             inkscape:connector-curvature="0"
             sodipodi:nodetypes="cccccccccccccccccccc" />
          <path
             transform="matrix(0.71017492,0.70402527,-0.70402527,0.71017492,0,0)"
             sodipodi:nodetypes="cccccccccccccccccccc"
             inkscape:connector-curvature="0"
             id="rect3336"
             d="m 579.32239,-146.43889 c 0,0 28.09825,7.59843 25.18918,24.1404 l -12.88065,13.66604 -26.5557,47.136256 -23.61201,46.560806 -17.85762,75.997832 -20.86822,141.752516 20.32585,179.661 66.78365,181.88334 -5,0 -5,0 -5,0 -5,0 -76.929,-171.82584 -20.25557,-195.82328 30.50277,-142.251297 19.46645,-80.811065 22.26693,-48.445684 23.4229,-43.734754 z"
             style="fill:#803300;fill-opacity:1" />
        </g>
        <path
           style="fill:#552200;fill-opacity:1"
           d="m 366.0312,162.24087 126.44713,31.61178 -106.4818,117.29636 -54.90468,97.33103 -49.91335,113.9688 -16.63778,112.30503 38.2669,55.73657 38.2669,84.02079 33.27556,75.70191 51.57712,95.66724 -163.05025,-4.99133 -53.2409,-85.68458 -39.93068,-77.36568 -51.57712,-90.67591 -6.65511,-82.35702 24.95667,-110.64125 48.24957,-115.63258 74.87002,-120.62392 z"
           id="rect3366"
           inkscape:connector-curvature="0"
           sodipodi:nodetypes="ccccccccccccccccccc" />
        <g
           transform="matrix(-0.8723923,0,0,0.51562261,360.43491,-207.00623)"
           id="g3369">
          <path
             sodipodi:nodetypes="cccccccccccccccccccc"
             inkscape:connector-curvature="0"
             id="path3371"
             d="m 25.162872,294.24454 c 0,0 29.52269,9.91754 26.8632,20.02894 l -13.14068,6.47653 -26.65735,25.54011 -23.595843,25.69758 -16.910902,45.64939 -18.548825,87.37461 25.346923,119.12026 73.922947,128.87122 -5.22249,-0.8957 -5.2225,-0.89571 -5.22248,-0.89571 -5.22249,-0.89571 -84.289296,-124.2241 -25.643847,-129.49615 28.600663,-85.96926 18.481031,-48.45494 22.147723,-27.15006 23.463086,-23.91498 z"
             style="fill:#008000;fill-opacity:1" />
          <path
             style="fill:#008000;fill-opacity:1"
             d="m 40.738162,766.28021 c 0,0 -0.106794,-18.26633 8.75538,-19.9377 l 8.808447,4.84789 27.845212,6.09663 27.133499,4.46491 41.35262,-5.00786 75.36605,-16.73629 88.88232,-49.01931 83.42381,-77.095 0.70964,2.97246 0.70964,2.97247 0.70963,2.97245 0.70964,2.97247 -76.84673,81.05865 -97.14766,52.30026 -76.98822,11.11118 -44.03946,5.04095 -27.905344,-3.27777 -25.663172,-4.9335 z"
             id="path3373"
             inkscape:connector-curvature="0"
             sodipodi:nodetypes="cccccccccccccccccccc" />
          <path
             style="fill:#008000;fill-opacity:1"
             d="m 142.77237,367.08532 c 0,0 17.96743,10.71547 14.71147,15.82881 l -9.61783,1.24619 -21.35614,9.37827 -19.36332,10.00837 -17.929362,22.21489 -25.216386,44.97171 -1.030941,70.29398 29.509437,84.29755 -3.30615,-1.42124 -3.30617,-1.42124 -3.30615,-1.42123 -3.30616,-1.42125 -37.027957,-83.56968 2.379221,-76.07789 31.627226,-42.41221 19.38087,-23.48604 18.625722,-11.06755 19.01065,-9.04729 z"
             id="path3375"
             inkscape:connector-curvature="0"
             sodipodi:nodetypes="cccccccccccccccccccc" />
          <path
             sodipodi:nodetypes="cccccccccccccccccccc"
             inkscape:connector-curvature="0"
             id="path3377"
             d="m 97.375071,637.01564 c 0,0 -2.506619,-20.76937 3.530349,-21.31936 l 6.86672,6.84864 20.47876,11.165 19.75888,9.20282 28.54116,0.60472 51.00413,-7.54319 56.25402,-42.16387 48.66182,-74.89266 0.89684,3.48514 0.89686,3.48516 0.89685,3.48514 0.89684,3.48516 -43.48884,80.39703 -61.6552,44.63342 -52.89856,0.90533 -30.43451,-0.97609 -20.14603,-7.97154 -18.78275,-9.51138 z"
             style="fill:#008000;fill-opacity:1" />
          <path
             sodipodi:nodetypes="cccccccccccccccccccc"
             inkscape:connector-curvature="0"
             id="path3379"
             d="m 281.69785,211.52206 c 0,0 17.96743,10.71547 14.71147,15.82881 l -9.61783,1.24619 -21.35614,9.37827 -19.36332,10.00837 -17.92937,22.21489 -25.21638,44.97171 -1.03094,70.29398 29.50943,84.29755 -3.30615,-1.42124 -3.30617,-1.42124 -3.30615,-1.42123 -3.30616,-1.42125 -37.02795,-83.56968 2.37922,-76.07789 31.62722,-42.41221 19.38087,-23.48604 18.62573,-11.06755 19.01065,-9.04729 z"
             style="fill:#008000;fill-opacity:1" />
          <path
             style="fill:#008000;fill-opacity:1"
             d="m 236.30055,481.45238 c 0,0 -2.50662,-20.76937 3.53035,-21.31936 l 6.86672,6.84864 20.47876,11.165 19.75888,9.20282 28.54116,0.60472 51.00413,-7.54319 56.25402,-42.16387 48.66182,-74.89266 0.89684,3.48514 0.89686,3.48516 0.89685,3.48514 0.89684,3.48516 -43.48884,80.39703 -61.6552,44.63342 -52.89856,0.90533 -30.43451,-0.97609 -20.14603,-7.97154 -18.78275,-9.51138 z"
             id="path3381"
             inkscape:connector-curvature="0"
             sodipodi:nodetypes="cccccccccccccccccccc" />
          <path
             style="fill:#008000;fill-opacity:1"
             d="m 634.98631,241.95522 c 0,0 8.90283,12.59029 3.6784,13.41364 l -8.33936,-3.66675 -21.90115,-5.23243 -20.62793,-4.08175 -25.72747,1.91866 -43.2105,8.74003 -36.80495,30.48377 -19.51734,50.03144 -1.91997,-2.07445 -1.91996,-2.07446 -1.91996,-2.07444 -1.91996,-2.07446 13.12432,-53.00625 40.84505,-32.43829 47.03391,-4.80395 27.54042,-1.84194 20.57942,3.29235 19.85359,4.35014 z"
             id="path3383"
             inkscape:connector-curvature="0"
             sodipodi:nodetypes="cccccccccccccccccccc" />
          <path
             sodipodi:nodetypes="cccccccccccccccccccc"
             inkscape:connector-curvature="0"
             id="path3385"
             d="m 460.49662,345.23529 c 0,0 7.5069,-15.33051 11.34245,-13.46286 l 1.12374,7.30528 7.36415,15.368 7.78551,13.73971 16.74459,11.05132 33.66038,13.77132 51.79163,-8.27108 61.45089,-33.78601 -0.9759,2.74989 -0.97591,2.74991 -0.9759,2.7499 -0.97591,2.74991 -60.75384,39.52852 -56.08019,7.97085 -31.91266,-19.0782 -17.71183,-12.01405 -8.54979,-13.03044 -7.07015,-13.58998 z"
             style="fill:#008000;fill-opacity:1" />
          <path
             style="fill:#803300;fill-opacity:1"
             d="m 579.32239,-146.43889 c 0,0 28.09825,7.59843 25.18918,24.1404 l -12.88065,13.66604 -26.5557,47.136256 -23.61201,46.560806 -17.85762,75.997832 -20.86822,141.752516 20.32585,179.661 66.78365,181.88334 -5,0 -5,0 -5,0 -5,0 -76.929,-171.82584 -20.25557,-195.82328 30.50277,-142.251297 19.46645,-80.811065 22.26693,-48.445684 23.4229,-43.734754 z"
             id="path3387"
             inkscape:connector-curvature="0"
             sodipodi:nodetypes="cccccccccccccccccccc"
             transform="matrix(0.71017492,0.70402527,-0.70402527,0.71017492,0,0)" />
        </g>
        <g
           id="g3389"
           transform="matrix(-0.76209482,0.42459371,0.25095375,0.4504319,188.22942,-158.80858)">
          <path
             style="fill:#008000;fill-opacity:1"
             d="m 25.162872,294.24454 c 0,0 29.52269,9.91754 26.8632,20.02894 l -13.14068,6.47653 -26.65735,25.54011 -23.595843,25.69758 -16.910902,45.64939 -18.548825,87.37461 25.346923,119.12026 73.922947,128.87122 -5.22249,-0.8957 -5.2225,-0.89571 -5.22248,-0.89571 -5.22249,-0.89571 -84.289296,-124.2241 -25.643847,-129.49615 28.600663,-85.96926 18.481031,-48.45494 22.147723,-27.15006 23.463086,-23.91498 z"
             id="path3391"
             inkscape:connector-curvature="0"
             sodipodi:nodetypes="cccccccccccccccccccc" />
          <path
             sodipodi:nodetypes="cccccccccccccccccccc"
             inkscape:connector-curvature="0"
             id="path3393"
             d="m 40.738162,766.28021 c 0,0 -0.106794,-18.26633 8.75538,-19.9377 l 8.808447,4.84789 27.845212,6.09663 27.133499,4.46491 41.35262,-5.00786 75.36605,-16.73629 88.88232,-49.01931 83.42381,-77.095 0.70964,2.97246 0.70964,2.97247 0.70963,2.97245 0.70964,2.97247 -76.84673,81.05865 -97.14766,52.30026 -76.98822,11.11118 -44.03946,5.04095 -27.905344,-3.27777 -25.663172,-4.9335 z"
             style="fill:#008000;fill-opacity:1" />
          <path
             sodipodi:nodetypes="cccccccccccccccccccc"
             inkscape:connector-curvature="0"
             id="path3395"
             d="m 142.77237,367.08532 c 0,0 17.96743,10.71547 14.71147,15.82881 l -9.61783,1.24619 -21.35614,9.37827 -19.36332,10.00837 -17.929362,22.21489 -25.216386,44.97171 -1.030941,70.29398 29.509437,84.29755 -3.30615,-1.42124 -3.30617,-1.42124 -3.30615,-1.42123 -3.30616,-1.42125 -37.027957,-83.56968 2.379221,-76.07789 31.627226,-42.41221 19.38087,-23.48604 18.625722,-11.06755 19.01065,-9.04729 z"
             style="fill:#008000;fill-opacity:1" />
          <path
             style="fill:#008000;fill-opacity:1"
             d="m 97.375071,637.01564 c 0,0 -2.506619,-20.76937 3.530349,-21.31936 l 6.86672,6.84864 20.47876,11.165 19.75888,9.20282 28.54116,0.60472 51.00413,-7.54319 56.25402,-42.16387 48.66182,-74.89266 0.89684,3.48514 0.89686,3.48516 0.89685,3.48514 0.89684,3.48516 -43.48884,80.39703 -61.6552,44.63342 -52.89856,0.90533 -30.43451,-0.97609 -20.14603,-7.97154 -18.78275,-9.51138 z"
             id="path3397"
             inkscape:connector-curvature="0"
             sodipodi:nodetypes="cccccccccccccccccccc" />
          <path
             style="fill:#008000;fill-opacity:1"
             d="m 281.69785,211.52206 c 0,0 17.96743,10.71547 14.71147,15.82881 l -9.61783,1.24619 -21.35614,9.37827 -19.36332,10.00837 -17.92937,22.21489 -25.21638,44.97171 -1.03094,70.29398 29.50943,84.29755 -3.30615,-1.42124 -3.30617,-1.42124 -3.30615,-1.42123 -3.30616,-1.42125 -37.02795,-83.56968 2.37922,-76.07789 31.62722,-42.41221 19.38087,-23.48604 18.62573,-11.06755 19.01065,-9.04729 z"
             id="path3399"
             inkscape:connector-curvature="0"
             sodipodi:nodetypes="cccccccccccccccccccc" />
          <path
             sodipodi:nodetypes="cccccccccccccccccccc"
             inkscape:connector-curvature="0"
             id="path3401"
             d="m 236.30055,481.45238 c 0,0 -2.50662,-20.76937 3.53035,-21.31936 l 6.86672,6.84864 20.47876,11.165 19.75888,9.20282 28.54116,0.60472 51.00413,-7.54319 56.25402,-42.16387 48.66182,-74.89266 0.89684,3.48514 0.89686,3.48516 0.89685,3.48514 0.89684,3.48516 -43.48884,80.39703 -61.6552,44.63342 -52.89856,0.90533 -30.43451,-0.97609 -20.14603,-7.97154 -18.78275,-9.51138 z"
             style="fill:#008000;fill-opacity:1" />
          <path
             sodipodi:nodetypes="cccccccccccccccccccc"
             inkscape:connector-curvature="0"
             id="path3403"
             d="m 634.98631,241.95522 c 0,0 8.90283,12.59029 3.6784,13.41364 l -8.33936,-3.66675 -21.90115,-5.23243 -20.62793,-4.08175 -25.72747,1.91866 -43.2105,8.74003 -36.80495,30.48377 -19.51734,50.03144 -1.91997,-2.07445 -1.91996,-2.07446 -1.91996,-2.07444 -1.91996,-2.07446 13.12432,-53.00625 40.84505,-32.43829 47.03391,-4.80395 27.54042,-1.84194 20.57942,3.29235 19.85359,4.35014 z"
             style="fill:#008000;fill-opacity:1" />
          <path
             style="fill:#008000;fill-opacity:1"
             d="m 460.49662,345.23529 c 0,0 7.5069,-15.33051 11.34245,-13.46286 l 1.12374,7.30528 7.36415,15.368 7.78551,13.73971 16.74459,11.05132 33.66038,13.77132 51.79163,-8.27108 61.45089,-33.78601 -0.9759,2.74989 -0.97591,2.74991 -0.9759,2.7499 -0.97591,2.74991 -60.75384,39.52852 -56.08019,7.97085 -31.91266,-19.0782 -17.71183,-12.01405 -8.54979,-13.03044 -7.07015,-13.58998 z"
             id="path3405"
             inkscape:connector-curvature="0"
             sodipodi:nodetypes="cccccccccccccccccccc" />
          <path
             transform="matrix(0.71017492,0.70402527,-0.70402527,0.71017492,0,0)"
             sodipodi:nodetypes="cccccccccccccccccccc"
             inkscape:connector-curvature="0"
             id="path3407"
             d="m 579.32239,-146.43889 c 0,0 28.09825,7.59843 25.18918,24.1404 l -12.88065,13.66604 -26.5557,47.136256 -23.61201,46.560806 -17.85762,75.997832 -20.86822,141.752516 20.32585,179.661 66.78365,181.88334 -5,0 -5,0 -5,0 -5,0 -76.929,-171.82584 -20.25557,-195.82328 30.50277,-142.251297 19.46645,-80.811065 22.26693,-48.445684 23.4229,-43.734754 z"
             style="fill:#803300;fill-opacity:1" />
        </g>
        <g
           transform="matrix(-0.76209482,0.68155301,0.25095375,0.36581658,176.58297,-97.347491)"
           id="g3409">
          <path
             sodipodi:nodetypes="cccccccccccccccccccc"
             inkscape:connector-curvature="0"
             id="path3411"
             d="m 25.162872,294.24454 c 0,0 29.52269,9.91754 26.8632,20.02894 l -13.14068,6.47653 -26.65735,25.54011 -23.595843,25.69758 -16.910902,45.64939 -18.548825,87.37461 25.346923,119.12026 73.922947,128.87122 -5.22249,-0.8957 -5.2225,-0.89571 -5.22248,-0.89571 -5.22249,-0.89571 -84.289296,-124.2241 -25.643847,-129.49615 28.600663,-85.96926 18.481031,-48.45494 22.147723,-27.15006 23.463086,-23.91498 z"
             style="fill:#008000;fill-opacity:1" />
          <path
             style="fill:#008000;fill-opacity:1"
             d="m 40.738162,766.28021 c 0,0 -0.106794,-18.26633 8.75538,-19.9377 l 8.808447,4.84789 27.845212,6.09663 27.133499,4.46491 41.35262,-5.00786 75.36605,-16.73629 88.88232,-49.01931 83.42381,-77.095 0.70964,2.97246 0.70964,2.97247 0.70963,2.97245 0.70964,2.97247 -76.84673,81.05865 -97.14766,52.30026 -76.98822,11.11118 -44.03946,5.04095 -27.905344,-3.27777 -25.663172,-4.9335 z"
             id="path3413"
             inkscape:connector-curvature="0"
             sodipodi:nodetypes="cccccccccccccccccccc" />
          <path
             style="fill:#008000;fill-opacity:1"
             d="m 142.77237,367.08532 c 0,0 17.96743,10.71547 14.71147,15.82881 l -9.61783,1.24619 -21.35614,9.37827 -19.36332,10.00837 -17.929362,22.21489 -25.216386,44.97171 -1.030941,70.29398 29.509437,84.29755 -3.30615,-1.42124 -3.30617,-1.42124 -3.30615,-1.42123 -3.30616,-1.42125 -37.027957,-83.56968 2.379221,-76.07789 31.627226,-42.41221 19.38087,-23.48604 18.625722,-11.06755 19.01065,-9.04729 z"
             id="path3415"
             inkscape:connector-curvature="0"
             sodipodi:nodetypes="cccccccccccccccccccc" />
          <path
             sodipodi:nodetypes="cccccccccccccccccccc"
             inkscape:connector-curvature="0"
             id="path3417"
             d="m 97.375071,637.01564 c 0,0 -2.506619,-20.76937 3.530349,-21.31936 l 6.86672,6.84864 20.47876,11.165 19.75888,9.20282 28.54116,0.60472 51.00413,-7.54319 56.25402,-42.16387 48.66182,-74.89266 0.89684,3.48514 0.89686,3.48516 0.89685,3.48514 0.89684,3.48516 -43.48884,80.39703 -61.6552,44.63342 -52.89856,0.90533 -30.43451,-0.97609 -20.14603,-7.97154 -18.78275,-9.51138 z"
             style="fill:#008000;fill-opacity:1" />
          <path
             sodipodi:nodetypes="cccccccccccccccccccc"
             inkscape:connector-curvature="0"
             id="path3419"
             d="m 281.69785,211.52206 c 0,0 17.96743,10.71547 14.71147,15.82881 l -9.61783,1.24619 -21.35614,9.37827 -19.36332,10.00837 -17.92937,22.21489 -25.21638,44.97171 -1.03094,70.29398 29.50943,84.29755 -3.30615,-1.42124 -3.30617,-1.42124 -3.30615,-1.42123 -3.30616,-1.42125 -37.02795,-83.56968 2.37922,-76.07789 31.62722,-42.41221 19.38087,-23.48604 18.62573,-11.06755 19.01065,-9.04729 z"
             style="fill:#008000;fill-opacity:1" />
          <path
             style="fill:#008000;fill-opacity:1"
             d="m 236.30055,481.45238 c 0,0 -2.50662,-20.76937 3.53035,-21.31936 l 6.86672,6.84864 20.47876,11.165 19.75888,9.20282 28.54116,0.60472 51.00413,-7.54319 56.25402,-42.16387 48.66182,-74.89266 0.89684,3.48514 0.89686,3.48516 0.89685,3.48514 0.89684,3.48516 -43.48884,80.39703 -61.6552,44.63342 -52.89856,0.90533 -30.43451,-0.97609 -20.14603,-7.97154 -18.78275,-9.51138 z"
             id="path3421"
             inkscape:connector-curvature="0"
             sodipodi:nodetypes="cccccccccccccccccccc" />
          <path
             style="fill:#008000;fill-opacity:1"
             d="m 634.98631,241.95522 c 0,0 8.90283,12.59029 3.6784,13.41364 l -8.33936,-3.66675 -21.90115,-5.23243 -20.62793,-4.08175 -25.72747,1.91866 -43.2105,8.74003 -36.80495,30.48377 -19.51734,50.03144 -1.91997,-2.07445 -1.91996,-2.07446 -1.91996,-2.07444 -1.91996,-2.07446 13.12432,-53.00625 40.84505,-32.43829 47.03391,-4.80395 27.54042,-1.84194 20.57942,3.29235 19.85359,4.35014 z"
             id="path3423"
             inkscape:connector-curvature="0"
             sodipodi:nodetypes="cccccccccccccccccccc" />
          <path
             sodipodi:nodetypes="cccccccccccccccccccc"
             inkscape:connector-curvature="0"
             id="path3425"
             d="m 460.49662,345.23529 c 0,0 7.5069,-15.33051 11.34245,-13.46286 l 1.12374,7.30528 7.36415,15.368 7.78551,13.73971 16.74459,11.05132 33.66038,13.77132 51.79163,-8.27108 61.45089,-33.78601 -0.9759,2.74989 -0.97591,2.74991 -0.9759,2.7499 -0.97591,2.74991 -60.75384,39.52852 -56.08019,7.97085 -31.91266,-19.0782 -17.71183,-12.01405 -8.54979,-13.03044 -7.07015,-13.58998 z"
             style="fill:#008000;fill-opacity:1" />
          <path
             style="fill:#803300;fill-opacity:1"
             d="m 579.32239,-146.43889 c 0,0 28.09825,7.59843 25.18918,24.1404 l -12.88065,13.66604 -26.5557,47.136256 -23.61201,46.560806 -17.85762,75.997832 -20.86822,141.752516 20.32585,179.661 66.78365,181.88334 -5,0 -5,0 -5,0 -5,0 -76.929,-171.82584 -20.25557,-195.82328 30.50277,-142.251297 19.46645,-80.811065 22.26693,-48.445684 23.4229,-43.734754 z"
             id="path3427"
             inkscape:connector-curvature="0"
             sodipodi:nodetypes="cccccccccccccccccccc"
             transform="matrix(0.71017492,0.70402527,-0.70402527,0.71017492,0,0)" />
        </g>
        <g
           id="g3429"
           transform="matrix(-0.79268521,-0.1224686,0.261027,-0.76162314,170.33574,830.28541)">
          <path
             style="fill:#008000;fill-opacity:1"
             d="m 25.162872,294.24454 c 0,0 29.52269,9.91754 26.8632,20.02894 l -13.14068,6.47653 -26.65735,25.54011 -23.595843,25.69758 -16.910902,45.64939 -18.548825,87.37461 25.346923,119.12026 73.922947,128.87122 -5.22249,-0.8957 -5.2225,-0.89571 -5.22248,-0.89571 -5.22249,-0.89571 -84.289296,-124.2241 -25.643847,-129.49615 28.600663,-85.96926 18.481031,-48.45494 22.147723,-27.15006 23.463086,-23.91498 z"
             id="path3431"
             inkscape:connector-curvature="0"
             sodipodi:nodetypes="cccccccccccccccccccc" />
          <path
             sodipodi:nodetypes="cccccccccccccccccccc"
             inkscape:connector-curvature="0"
             id="path3433"
             d="m 40.738162,766.28021 c 0,0 -0.106794,-18.26633 8.75538,-19.9377 l 8.808447,4.84789 27.845212,6.09663 27.133499,4.46491 41.35262,-5.00786 75.36605,-16.73629 88.88232,-49.01931 83.42381,-77.095 0.70964,2.97246 0.70964,2.97247 0.70963,2.97245 0.70964,2.97247 -76.84673,81.05865 -97.14766,52.30026 -76.98822,11.11118 -44.03946,5.04095 -27.905344,-3.27777 -25.663172,-4.9335 z"
             style="fill:#008000;fill-opacity:1" />
          <path
             sodipodi:nodetypes="cccccccccccccccccccc"
             inkscape:connector-curvature="0"
             id="path3435"
             d="m 142.77237,367.08532 c 0,0 17.96743,10.71547 14.71147,15.82881 l -9.61783,1.24619 -21.35614,9.37827 -19.36332,10.00837 -17.929362,22.21489 -25.216386,44.97171 -1.030941,70.29398 29.509437,84.29755 -3.30615,-1.42124 -3.30617,-1.42124 -3.30615,-1.42123 -3.30616,-1.42125 -37.027957,-83.56968 2.379221,-76.07789 31.627226,-42.41221 19.38087,-23.48604 18.625722,-11.06755 19.01065,-9.04729 z"
             style="fill:#008000;fill-opacity:1" />
          <path
             style="fill:#008000;fill-opacity:1"
             d="m 97.375071,637.01564 c 0,0 -2.506619,-20.76937 3.530349,-21.31936 l 6.86672,6.84864 20.47876,11.165 19.75888,9.20282 28.54116,0.60472 51.00413,-7.54319 56.25402,-42.16387 48.66182,-74.89266 0.89684,3.48514 0.89686,3.48516 0.89685,3.48514 0.89684,3.48516 -43.48884,80.39703 -61.6552,44.63342 -52.89856,0.90533 -30.43451,-0.97609 -20.14603,-7.97154 -18.78275,-9.51138 z"
             id="path3437"
             inkscape:connector-curvature="0"
             sodipodi:nodetypes="cccccccccccccccccccc" />
          <path
             style="fill:#008000;fill-opacity:1"
             d="m 281.69785,211.52206 c 0,0 17.96743,10.71547 14.71147,15.82881 l -9.61783,1.24619 -21.35614,9.37827 -19.36332,10.00837 -17.92937,22.21489 -25.21638,44.97171 -1.03094,70.29398 29.50943,84.29755 -3.30615,-1.42124 -3.30617,-1.42124 -3.30615,-1.42123 -3.30616,-1.42125 -37.02795,-83.56968 2.37922,-76.07789 31.62722,-42.41221 19.38087,-23.48604 18.62573,-11.06755 19.01065,-9.04729 z"
             id="path3439"
             inkscape:connector-curvature="0"
             sodipodi:nodetypes="cccccccccccccccccccc" />
          <path
             sodipodi:nodetypes="cccccccccccccccccccc"
             inkscape:connector-curvature="0"
             id="path3441"
             d="m 236.30055,481.45238 c 0,0 -2.50662,-20.76937 3.53035,-21.31936 l 6.86672,6.84864 20.47876,11.165 19.75888,9.20282 28.54116,0.60472 51.00413,-7.54319 56.25402,-42.16387 48.66182,-74.89266 0.89684,3.48514 0.89686,3.48516 0.89685,3.48514 0.89684,3.48516 -43.48884,80.39703 -61.6552,44.63342 -52.89856,0.90533 -30.43451,-0.97609 -20.14603,-7.97154 -18.78275,-9.51138 z"
             style="fill:#008000;fill-opacity:1" />
          <path
             sodipodi:nodetypes="cccccccccccccccccccc"
             inkscape:connector-curvature="0"
             id="path3443"
             d="m 634.98631,241.95522 c 0,0 8.90283,12.59029 3.6784,13.41364 l -8.33936,-3.66675 -21.90115,-5.23243 -20.62793,-4.08175 -25.72747,1.91866 -43.2105,8.74003 -36.80495,30.48377 -19.51734,50.03144 -1.91997,-2.07445 -1.91996,-2.07446 -1.91996,-2.07444 -1.91996,-2.07446 13.12432,-53.00625 40.84505,-32.43829 47.03391,-4.80395 27.54042,-1.84194 20.57942,3.29235 19.85359,4.35014 z"
             style="fill:#008000;fill-opacity:1" />
          <path
             style="fill:#008000;fill-opacity:1"
             d="m 460.49662,345.23529 c 0,0 7.5069,-15.33051 11.34245,-13.46286 l 1.12374,7.30528 7.36415,15.368 7.78551,13.73971 16.74459,11.05132 33.66038,13.77132 51.79163,-8.27108 61.45089,-33.78601 -0.9759,2.74989 -0.97591,2.74991 -0.9759,2.7499 -0.97591,2.74991 -60.75384,39.52852 -56.08019,7.97085 -31.91266,-19.0782 -17.71183,-12.01405 -8.54979,-13.03044 -7.07015,-13.58998 z"
             id="path3445"
             inkscape:connector-curvature="0"
             sodipodi:nodetypes="cccccccccccccccccccc" />
          <path
             transform="matrix(0.71017492,0.70402527,-0.70402527,0.71017492,0,0)"
             sodipodi:nodetypes="cccccccccccccccccccc"
             inkscape:connector-curvature="0"
             id="path3447"
             d="m 579.32239,-146.43889 c 0,0 28.09825,7.59843 25.18918,24.1404 l -12.88065,13.66604 -26.5557,47.136256 -23.61201,46.560806 -17.85762,75.997832 -20.86822,141.752516 20.32585,179.661 66.78365,181.88334 -5,0 -5,0 -5,0 -5,0 -76.929,-171.82584 -20.25557,-195.82328 30.50277,-142.251297 19.46645,-80.811065 22.26693,-48.445684 23.4229,-43.734754 z"
             style="fill:#803300;fill-opacity:1" />
        </g>
        <g
           transform="matrix(0.8723923,0.60016373,0,0.49317792,419.25278,-200.76804)"
           id="g3449">
          <path
             sodipodi:nodetypes="cccccccccccccccccccc"
             inkscape:connector-curvature="0"
             id="path3451"
             d="m 25.162872,294.24454 c 0,0 29.52269,9.91754 26.8632,20.02894 l -13.14068,6.47653 -26.65735,25.54011 -23.595843,25.69758 -16.910902,45.64939 -18.548825,87.37461 25.346923,119.12026 73.922947,128.87122 -5.22249,-0.8957 -5.2225,-0.89571 -5.22248,-0.89571 -5.22249,-0.89571 -84.289296,-124.2241 -25.643847,-129.49615 28.600663,-85.96926 18.481031,-48.45494 22.147723,-27.15006 23.463086,-23.91498 z"
             style="fill:#008000;fill-opacity:1" />
          <path
             style="fill:#008000;fill-opacity:1"
             d="m 40.738162,766.28021 c 0,0 -0.106794,-18.26633 8.75538,-19.9377 l 8.808447,4.84789 27.845212,6.09663 27.133499,4.46491 41.35262,-5.00786 75.36605,-16.73629 88.88232,-49.01931 83.42381,-77.095 0.70964,2.97246 0.70964,2.97247 0.70963,2.97245 0.70964,2.97247 -76.84673,81.05865 -97.14766,52.30026 -76.98822,11.11118 -44.03946,5.04095 -27.905344,-3.27777 -25.663172,-4.9335 z"
             id="path3453"
             inkscape:connector-curvature="0"
             sodipodi:nodetypes="cccccccccccccccccccc" />
          <path
             style="fill:#008000;fill-opacity:1"
             d="m 142.77237,367.08532 c 0,0 17.96743,10.71547 14.71147,15.82881 l -9.61783,1.24619 -21.35614,9.37827 -19.36332,10.00837 -17.929362,22.21489 -25.216386,44.97171 -1.030941,70.29398 29.509437,84.29755 -3.30615,-1.42124 -3.30617,-1.42124 -3.30615,-1.42123 -3.30616,-1.42125 -37.027957,-83.56968 2.379221,-76.07789 31.627226,-42.41221 19.38087,-23.48604 18.625722,-11.06755 19.01065,-9.04729 z"
             id="path3455"
             inkscape:connector-curvature="0"
             sodipodi:nodetypes="cccccccccccccccccccc" />
          <path
             sodipodi:nodetypes="cccccccccccccccccccc"
             inkscape:connector-curvature="0"
             id="path3457"
             d="m 97.375071,637.01564 c 0,0 -2.506619,-20.76937 3.530349,-21.31936 l 6.86672,6.84864 20.47876,11.165 19.75888,9.20282 28.54116,0.60472 51.00413,-7.54319 56.25402,-42.16387 48.66182,-74.89266 0.89684,3.48514 0.89686,3.48516 0.89685,3.48514 0.89684,3.48516 -43.48884,80.39703 -61.6552,44.63342 -52.89856,0.90533 -30.43451,-0.97609 -20.14603,-7.97154 -18.78275,-9.51138 z"
             style="fill:#008000;fill-opacity:1" />
          <path
             sodipodi:nodetypes="cccccccccccccccccccc"
             inkscape:connector-curvature="0"
             id="path3459"
             d="m 281.69785,211.52206 c 0,0 17.96743,10.71547 14.71147,15.82881 l -9.61783,1.24619 -21.35614,9.37827 -19.36332,10.00837 -17.92937,22.21489 -25.21638,44.97171 -1.03094,70.29398 29.50943,84.29755 -3.30615,-1.42124 -3.30617,-1.42124 -3.30615,-1.42123 -3.30616,-1.42125 -37.02795,-83.56968 2.37922,-76.07789 31.62722,-42.41221 19.38087,-23.48604 18.62573,-11.06755 19.01065,-9.04729 z"
             style="fill:#008000;fill-opacity:1" />
          <path
             style="fill:#008000;fill-opacity:1"
             d="m 236.30055,481.45238 c 0,0 -2.50662,-20.76937 3.53035,-21.31936 l 6.86672,6.84864 20.47876,11.165 19.75888,9.20282 28.54116,0.60472 51.00413,-7.54319 56.25402,-42.16387 48.66182,-74.89266 0.89684,3.48514 0.89686,3.48516 0.89685,3.48514 0.89684,3.48516 -43.48884,80.39703 -61.6552,44.63342 -52.89856,0.90533 -30.43451,-0.97609 -20.14603,-7.97154 -18.78275,-9.51138 z"
             id="path3461"
             inkscape:connector-curvature="0"
             sodipodi:nodetypes="cccccccccccccccccccc" />
          <path
             style="fill:#008000;fill-opacity:1"
             d="m 634.98631,241.95522 c 0,0 8.90283,12.59029 3.6784,13.41364 l -8.33936,-3.66675 -21.90115,-5.23243 -20.62793,-4.08175 -25.72747,1.91866 -43.2105,8.74003 -36.80495,30.48377 -19.51734,50.03144 -1.91997,-2.07445 -1.91996,-2.07446 -1.91996,-2.07444 -1.91996,-2.07446 13.12432,-53.00625 40.84505,-32.43829 47.03391,-4.80395 27.54042,-1.84194 20.57942,3.29235 19.85359,4.35014 z"
             id="path3463"
             inkscape:connector-curvature="0"
             sodipodi:nodetypes="cccccccccccccccccccc" />
          <path
             sodipodi:nodetypes="cccccccccccccccccccc"
             inkscape:connector-curvature="0"
             id="path3465"
             d="m 460.49662,345.23529 c 0,0 7.5069,-15.33051 11.34245,-13.46286 l 1.12374,7.30528 7.36415,15.368 7.78551,13.73971 16.74459,11.05132 33.66038,13.77132 51.79163,-8.27108 61.45089,-33.78601 -0.9759,2.74989 -0.97591,2.74991 -0.9759,2.7499 -0.97591,2.74991 -60.75384,39.52852 -56.08019,7.97085 -31.91266,-19.0782 -17.71183,-12.01405 -8.54979,-13.03044 -7.07015,-13.58998 z"
             style="fill:#008000;fill-opacity:1" />
          <path
             style="fill:#803300;fill-opacity:1"
             d="m 579.32239,-146.43889 c 0,0 28.09825,7.59843 25.18918,24.1404 l -12.88065,13.66604 -26.5557,47.136256 -23.61201,46.560806 -17.85762,75.997832 -20.86822,141.752516 20.32585,179.661 66.78365,181.88334 -5,0 -5,0 -5,0 -5,0 -76.929,-171.82584 -20.25557,-195.82328 30.50277,-142.251297 19.46645,-80.811065 22.26693,-48.445684 23.4229,-43.734754 z"
             id="path3467"
             inkscape:connector-curvature="0"
             sodipodi:nodetypes="cccccccccccccccccccc"
             transform="matrix(0.71017492,0.70402527,-0.70402527,0.71017492,0,0)" />
        </g>
        <g
           id="g3469"
           transform="matrix(0.8723923,-0.0278792,0,-0.43486028,397.62366,552.96173)">
          <path
             style="fill:#008000;fill-opacity:1"
             d="m 25.162872,294.24454 c 0,0 29.52269,9.91754 26.8632,20.02894 l -13.14068,6.47653 -26.65735,25.54011 -23.595843,25.69758 -16.910902,45.64939 -18.548825,87.37461 25.346923,119.12026 73.922947,128.87122 -5.22249,-0.8957 -5.2225,-0.89571 -5.22248,-0.89571 -5.22249,-0.89571 -84.289296,-124.2241 -25.643847,-129.49615 28.600663,-85.96926 18.481031,-48.45494 22.147723,-27.15006 23.463086,-23.91498 z"
             id="path3471"
             inkscape:connector-curvature="0"
             sodipodi:nodetypes="cccccccccccccccccccc" />
          <path
             sodipodi:nodetypes="cccccccccccccccccccc"
             inkscape:connector-curvature="0"
             id="path3473"
             d="m 40.738162,766.28021 c 0,0 -0.106794,-18.26633 8.75538,-19.9377 l 8.808447,4.84789 27.845212,6.09663 27.133499,4.46491 41.35262,-5.00786 75.36605,-16.73629 88.88232,-49.01931 83.42381,-77.095 0.70964,2.97246 0.70964,2.97247 0.70963,2.97245 0.70964,2.97247 -76.84673,81.05865 -97.14766,52.30026 -76.98822,11.11118 -44.03946,5.04095 -27.905344,-3.27777 -25.663172,-4.9335 z"
             style="fill:#008000;fill-opacity:1" />
          <path
             sodipodi:nodetypes="cccccccccccccccccccc"
             inkscape:connector-curvature="0"
             id="path3475"
             d="m 142.77237,367.08532 c 0,0 17.96743,10.71547 14.71147,15.82881 l -9.61783,1.24619 -21.35614,9.37827 -19.36332,10.00837 -17.929362,22.21489 -25.216386,44.97171 -1.030941,70.29398 29.509437,84.29755 -3.30615,-1.42124 -3.30617,-1.42124 -3.30615,-1.42123 -3.30616,-1.42125 -37.027957,-83.56968 2.379221,-76.07789 31.627226,-42.41221 19.38087,-23.48604 18.625722,-11.06755 19.01065,-9.04729 z"
             style="fill:#008000;fill-opacity:1" />
          <path
             style="fill:#008000;fill-opacity:1"
             d="m 97.375071,637.01564 c 0,0 -2.506619,-20.76937 3.530349,-21.31936 l 6.86672,6.84864 20.47876,11.165 19.75888,9.20282 28.54116,0.60472 51.00413,-7.54319 56.25402,-42.16387 48.66182,-74.89266 0.89684,3.48514 0.89686,3.48516 0.89685,3.48514 0.89684,3.48516 -43.48884,80.39703 -61.6552,44.63342 -52.89856,0.90533 -30.43451,-0.97609 -20.14603,-7.97154 -18.78275,-9.51138 z"
             id="path3477"
             inkscape:connector-curvature="0"
             sodipodi:nodetypes="cccccccccccccccccccc" />
          <path
             style="fill:#008000;fill-opacity:1"
             d="m 281.69785,211.52206 c 0,0 17.96743,10.71547 14.71147,15.82881 l -9.61783,1.24619 -21.35614,9.37827 -19.36332,10.00837 -17.92937,22.21489 -25.21638,44.97171 -1.03094,70.29398 29.50943,84.29755 -3.30615,-1.42124 -3.30617,-1.42124 -3.30615,-1.42123 -3.30616,-1.42125 -37.02795,-83.56968 2.37922,-76.07789 31.62722,-42.41221 19.38087,-23.48604 18.62573,-11.06755 19.01065,-9.04729 z"
             id="path3479"
             inkscape:connector-curvature="0"
             sodipodi:nodetypes="cccccccccccccccccccc" />
          <path
             sodipodi:nodetypes="cccccccccccccccccccc"
             inkscape:connector-curvature="0"
             id="path3481"
             d="m 236.30055,481.45238 c 0,0 -2.50662,-20.76937 3.53035,-21.31936 l 6.86672,6.84864 20.47876,11.165 19.75888,9.20282 28.54116,0.60472 51.00413,-7.54319 56.25402,-42.16387 48.66182,-74.89266 0.89684,3.48514 0.89686,3.48516 0.89685,3.48514 0.89684,3.48516 -43.48884,80.39703 -61.6552,44.63342 -52.89856,0.90533 -30.43451,-0.97609 -20.14603,-7.97154 -18.78275,-9.51138 z"
             style="fill:#008000;fill-opacity:1" />
          <path
             sodipodi:nodetypes="cccccccccccccccccccc"
             inkscape:connector-curvature="0"
             id="path3483"
             d="m 634.98631,241.95522 c 0,0 8.90283,12.59029 3.6784,13.41364 l -8.33936,-3.66675 -21.90115,-5.23243 -20.62793,-4.08175 -25.72747,1.91866 -43.2105,8.74003 -36.80495,30.48377 -19.51734,50.03144 -1.91997,-2.07445 -1.91996,-2.07446 -1.91996,-2.07444 -1.91996,-2.07446 13.12432,-53.00625 40.84505,-32.43829 47.03391,-4.80395 27.54042,-1.84194 20.57942,3.29235 19.85359,4.35014 z"
             style="fill:#008000;fill-opacity:1" />
          <path
             style="fill:#008000;fill-opacity:1"
             d="m 460.49662,345.23529 c 0,0 7.5069,-15.33051 11.34245,-13.46286 l 1.12374,7.30528 7.36415,15.368 7.78551,13.73971 16.74459,11.05132 33.66038,13.77132 51.79163,-8.27108 61.45089,-33.78601 -0.9759,2.74989 -0.97591,2.74991 -0.9759,2.7499 -0.97591,2.74991 -60.75384,39.52852 -56.08019,7.97085 -31.91266,-19.0782 -17.71183,-12.01405 -8.54979,-13.03044 -7.07015,-13.58998 z"
             id="path3485"
             inkscape:connector-curvature="0"
             sodipodi:nodetypes="cccccccccccccccccccc" />
          <path
             transform="matrix(0.71017492,0.70402527,-0.70402527,0.71017492,0,0)"
             sodipodi:nodetypes="cccccccccccccccccccc"
             inkscape:connector-curvature="0"
             id="path3487"
             d="m 579.32239,-146.43889 c 0,0 28.09825,7.59843 25.18918,24.1404 l -12.88065,13.66604 -26.5557,47.136256 -23.61201,46.560806 -17.85762,75.997832 -20.86822,141.752516 20.32585,179.661 66.78365,181.88334 -5,0 -5,0 -5,0 -5,0 -76.929,-171.82584 -20.25557,-195.82328 30.50277,-142.251297 19.46645,-80.811065 22.26693,-48.445684 23.4229,-43.734754 z"
             style="fill:#803300;fill-opacity:1" />
        </g>
      </g>
      <g
         transform="matrix(0.44898885,0,0,0.48514852,-192.87423,-85.977744)"
         id="g3497">
        <path
           style="fill:#552200;fill-opacity:1"
           id="path3489"
           sodipodi:type="arc"
           sodipodi:cx="1183.7782"
           sodipodi:cy="595.65509"
           sodipodi:rx="90.675911"
           sodipodi:ry="84.020798"
           sodipodi:start="3.2848667"
           sodipodi:end="3.0782547"
           sodipodi:open="true"
           d="m 1094.0314,583.65823 a 90.675911,84.020798 0 0 1 98.043,-71.67153 90.675911,84.020798 0 0 1 82.3073,87.02564 90.675911,84.020798 0 0 1 -89.544,80.65781 90.675911,84.020798 0 0 1 -91.5536,-78.69691" />
        <path
           d="m 1121.643,545.86137 a 9.0689621,10.814559 0 0 1 9.8058,-9.22505 9.0689621,10.814559 0 0 1 8.2319,11.20132 9.0689621,10.814559 0 0 1 -8.9557,10.3817 9.0689621,10.814559 0 0 1 -9.1568,-10.12931"
           sodipodi:open="true"
           sodipodi:end="3.0782547"
           sodipodi:start="3.2848667"
           sodipodi:ry="10.814559"
           sodipodi:rx="9.0689621"
           sodipodi:cy="547.40552"
           sodipodi:cx="1130.619"
           sodipodi:type="arc"
           id="path3491"
           style="fill:#c87137;fill-opacity:1" />
        <path
           style="fill:#c87137;fill-opacity:1"
           id="path3493"
           sodipodi:type="arc"
           sodipodi:cx="1153.9119"
           sodipodi:cy="545.74176"
           sodipodi:rx="9.0689621"
           sodipodi:ry="10.814559"
           sodipodi:start="3.2848667"
           sodipodi:end="3.0782547"
           sodipodi:open="true"
           d="m 1144.9358,544.19761 a 9.0689621,10.814559 0 0 1 9.8058,-9.22505 9.0689621,10.814559 0 0 1 8.232,11.20132 9.0689621,10.814559 0 0 1 -8.9558,10.3817 9.0689621,10.814559 0 0 1 -9.1567,-10.12931" />
        <path
           d="m 1133.2893,567.49052 a 9.0689621,10.814559 0 0 1 9.8058,-9.22505 9.0689621,10.814559 0 0 1 8.232,11.20132 9.0689621,10.814559 0 0 1 -8.9558,10.3817 9.0689621,10.814559 0 0 1 -9.1567,-10.12931"
           sodipodi:open="true"
           sodipodi:end="3.0782547"
           sodipodi:start="3.2848667"
           sodipodi:ry="10.814559"
           sodipodi:rx="9.0689621"
           sodipodi:cy="569.03467"
           sodipodi:cx="1142.2654"
           sodipodi:type="arc"
           id="path3495"
           style="fill:#c87137;fill-opacity:1" />
      </g>
      <g
         id="g3576"
         transform="matrix(0.44898885,0,0,0.48514852,-109.68532,-89.3053)">
        <path
           d="m 1094.0314,583.65823 a 90.675911,84.020798 0 0 1 98.043,-71.67153 90.675911,84.020798 0 0 1 82.3073,87.02564 90.675911,84.020798 0 0 1 -89.544,80.65781 90.675911,84.020798 0 0 1 -91.5536,-78.69691"
           sodipodi:open="true"
           sodipodi:end="3.0782547"
           sodipodi:start="3.2848667"
           sodipodi:ry="84.020798"
           sodipodi:rx="90.675911"
           sodipodi:cy="595.65509"
           sodipodi:cx="1183.7782"
           sodipodi:type="arc"
           id="path3578"
           style="fill:#552200;fill-opacity:1" />
        <path
           style="fill:#c87137;fill-opacity:1"
           id="path3580"
           sodipodi:type="arc"
           sodipodi:cx="1130.619"
           sodipodi:cy="547.40552"
           sodipodi:rx="9.0689621"
           sodipodi:ry="10.814559"
           sodipodi:start="3.2848667"
           sodipodi:end="3.0782547"
           sodipodi:open="true"
           d="m 1121.643,545.86137 a 9.0689621,10.814559 0 0 1 9.8058,-9.22505 9.0689621,10.814559 0 0 1 8.2319,11.20132 9.0689621,10.814559 0 0 1 -8.9557,10.3817 9.0689621,10.814559 0 0 1 -9.1568,-10.12931" />
        <path
           d="m 1144.9358,544.19761 a 9.0689621,10.814559 0 0 1 9.8058,-9.22505 9.0689621,10.814559 0 0 1 8.232,11.20132 9.0689621,10.814559 0 0 1 -8.9558,10.3817 9.0689621,10.814559 0 0 1 -9.1567,-10.12931"
           sodipodi:open="true"
           sodipodi:end="3.0782547"
           sodipodi:start="3.2848667"
           sodipodi:ry="10.814559"
           sodipodi:rx="9.0689621"
           sodipodi:cy="545.74176"
           sodipodi:cx="1153.9119"
           sodipodi:type="arc"
           id="path3582"
           style="fill:#c87137;fill-opacity:1" />
        <path
           style="fill:#c87137;fill-opacity:1"
           id="path3584"
           sodipodi:type="arc"
           sodipodi:cx="1142.2654"
           sodipodi:cy="569.03467"
           sodipodi:rx="9.0689621"
           sodipodi:ry="10.814559"
           sodipodi:start="3.2848667"
           sodipodi:end="3.0782547"
           sodipodi:open="true"
           d="m 1133.2893,567.49052 a 9.0689621,10.814559 0 0 1 9.8058,-9.22505 9.0689621,10.814559 0 0 1 8.232,11.20132 9.0689621,10.814559 0 0 1 -8.9558,10.3817 9.0689621,10.814559 0 0 1 -9.1567,-10.12931" />
      </g>
      <g
         transform="matrix(0.44898885,0,0,0.48514852,-159.59866,-42.719512)"
         id="g3586">
        <path
           style="fill:#552200;fill-opacity:1"
           id="path3588"
           sodipodi:type="arc"
           sodipodi:cx="1183.7782"
           sodipodi:cy="595.65509"
           sodipodi:rx="90.675911"
           sodipodi:ry="84.020798"
           sodipodi:start="3.2848667"
           sodipodi:end="3.0782547"
           sodipodi:open="true"
           d="m 1094.0314,583.65823 a 90.675911,84.020798 0 0 1 98.043,-71.67153 90.675911,84.020798 0 0 1 82.3073,87.02564 90.675911,84.020798 0 0 1 -89.544,80.65781 90.675911,84.020798 0 0 1 -91.5536,-78.69691" />
        <path
           d="m 1121.643,545.86137 a 9.0689621,10.814559 0 0 1 9.8058,-9.22505 9.0689621,10.814559 0 0 1 8.2319,11.20132 9.0689621,10.814559 0 0 1 -8.9557,10.3817 9.0689621,10.814559 0 0 1 -9.1568,-10.12931"
           sodipodi:open="true"
           sodipodi:end="3.0782547"
           sodipodi:start="3.2848667"
           sodipodi:ry="10.814559"
           sodipodi:rx="9.0689621"
           sodipodi:cy="547.40552"
           sodipodi:cx="1130.619"
           sodipodi:type="arc"
           id="path3590"
           style="fill:#c87137;fill-opacity:1" />
        <path
           style="fill:#c87137;fill-opacity:1"
           id="path3592"
           sodipodi:type="arc"
           sodipodi:cx="1153.9119"
           sodipodi:cy="545.74176"
           sodipodi:rx="9.0689621"
           sodipodi:ry="10.814559"
           sodipodi:start="3.2848667"
           sodipodi:end="3.0782547"
           sodipodi:open="true"
           d="m 1144.9358,544.19761 a 9.0689621,10.814559 0 0 1 9.8058,-9.22505 9.0689621,10.814559 0 0 1 8.232,11.20132 9.0689621,10.814559 0 0 1 -8.9558,10.3817 9.0689621,10.814559 0 0 1 -9.1567,-10.12931" />
        <path
           d="m 1133.2893,567.49052 a 9.0689621,10.814559 0 0 1 9.8058,-9.22505 9.0689621,10.814559 0 0 1 8.232,11.20132 9.0689621,10.814559 0 0 1 -8.9558,10.3817 9.0689621,10.814559 0 0 1 -9.1567,-10.12931"
           sodipodi:open="true"
           sodipodi:end="3.0782547"
           sodipodi:start="3.2848667"
           sodipodi:ry="10.814559"
           sodipodi:rx="9.0689621"
           sodipodi:cy="569.03467"
           sodipodi:cx="1142.2654"
           sodipodi:type="arc"
           id="path3594"
           style="fill:#c87137;fill-opacity:1" />
      </g>
      <g
         id="g3596"
         transform="matrix(0.44898885,0,0,0.48514852,-229.47734,-26.08173)">
        <path
           d="m 1094.0314,583.65823 a 90.675911,84.020798 0 0 1 98.043,-71.67153 90.675911,84.020798 0 0 1 82.3073,87.02564 90.675911,84.020798 0 0 1 -89.544,80.65781 90.675911,84.020798 0 0 1 -91.5536,-78.69691"
           sodipodi:open="true"
           sodipodi:end="3.0782547"
           sodipodi:start="3.2848667"
           sodipodi:ry="84.020798"
           sodipodi:rx="90.675911"
           sodipodi:cy="595.65509"
           sodipodi:cx="1183.7782"
           sodipodi:type="arc"
           id="path3598"
           style="fill:#552200;fill-opacity:1" />
        <path
           style="fill:#c87137;fill-opacity:1"
           id="path3600"
           sodipodi:type="arc"
           sodipodi:cx="1130.619"
           sodipodi:cy="547.40552"
           sodipodi:rx="9.0689621"
           sodipodi:ry="10.814559"
           sodipodi:start="3.2848667"
           sodipodi:end="3.0782547"
           sodipodi:open="true"
           d="m 1121.643,545.86137 a 9.0689621,10.814559 0 0 1 9.8058,-9.22505 9.0689621,10.814559 0 0 1 8.2319,11.20132 9.0689621,10.814559 0 0 1 -8.9557,10.3817 9.0689621,10.814559 0 0 1 -9.1568,-10.12931" />
        <path
           d="m 1144.9358,544.19761 a 9.0689621,10.814559 0 0 1 9.8058,-9.22505 9.0689621,10.814559 0 0 1 8.232,11.20132 9.0689621,10.814559 0 0 1 -8.9558,10.3817 9.0689621,10.814559 0 0 1 -9.1567,-10.12931"
           sodipodi:open="true"
           sodipodi:end="3.0782547"
           sodipodi:start="3.2848667"
           sodipodi:ry="10.814559"
           sodipodi:rx="9.0689621"
           sodipodi:cy="545.74176"
           sodipodi:cx="1153.9119"
           sodipodi:type="arc"
           id="path3602"
           style="fill:#c87137;fill-opacity:1" />
        <path
           style="fill:#c87137;fill-opacity:1"
           id="path3604"
           sodipodi:type="arc"
           sodipodi:cx="1142.2654"
           sodipodi:cy="569.03467"
           sodipodi:rx="9.0689621"
           sodipodi:ry="10.814559"
           sodipodi:start="3.2848667"
           sodipodi:end="3.0782547"
           sodipodi:open="true"
           d="m 1133.2893,567.49052 a 9.0689621,10.814559 0 0 1 9.8058,-9.22505 9.0689621,10.814559 0 0 1 8.232,11.20132 9.0689621,10.814559 0 0 1 -8.9558,10.3817 9.0689621,10.814559 0 0 1 -9.1567,-10.12931" />
      </g>
      <g
         transform="matrix(0.44898885,0,0,0.48514852,-106.35776,-26.08173)"
         id="g3606">
        <path
           style="fill:#552200;fill-opacity:1"
           id="path3608"
           sodipodi:type="arc"
           sodipodi:cx="1183.7782"
           sodipodi:cy="595.65509"
           sodipodi:rx="90.675911"
           sodipodi:ry="84.020798"
           sodipodi:start="3.2848667"
           sodipodi:end="3.0782547"
           sodipodi:open="true"
           d="m 1094.0314,583.65823 a 90.675911,84.020798 0 0 1 98.043,-71.67153 90.675911,84.020798 0 0 1 82.3073,87.02564 90.675911,84.020798 0 0 1 -89.544,80.65781 90.675911,84.020798 0 0 1 -91.5536,-78.69691" />
        <path
           d="m 1121.643,545.86137 a 9.0689621,10.814559 0 0 1 9.8058,-9.22505 9.0689621,10.814559 0 0 1 8.2319,11.20132 9.0689621,10.814559 0 0 1 -8.9557,10.3817 9.0689621,10.814559 0 0 1 -9.1568,-10.12931"
           sodipodi:open="true"
           sodipodi:end="3.0782547"
           sodipodi:start="3.2848667"
           sodipodi:ry="10.814559"
           sodipodi:rx="9.0689621"
           sodipodi:cy="547.40552"
           sodipodi:cx="1130.619"
           sodipodi:type="arc"
           id="path3610"
           style="fill:#c87137;fill-opacity:1" />
        <path
           style="fill:#c87137;fill-opacity:1"
           id="path3612"
           sodipodi:type="arc"
           sodipodi:cx="1153.9119"
           sodipodi:cy="545.74176"
           sodipodi:rx="9.0689621"
           sodipodi:ry="10.814559"
           sodipodi:start="3.2848667"
           sodipodi:end="3.0782547"
           sodipodi:open="true"
           d="m 1144.9358,544.19761 a 9.0689621,10.814559 0 0 1 9.8058,-9.22505 9.0689621,10.814559 0 0 1 8.232,11.20132 9.0689621,10.814559 0 0 1 -8.9558,10.3817 9.0689621,10.814559 0 0 1 -9.1567,-10.12931" />
        <path
           d="m 1133.2893,567.49052 a 9.0689621,10.814559 0 0 1 9.8058,-9.22505 9.0689621,10.814559 0 0 1 8.232,11.20132 9.0689621,10.814559 0 0 1 -8.9558,10.3817 9.0689621,10.814559 0 0 1 -9.1567,-10.12931"
           sodipodi:open="true"
           sodipodi:end="3.0782547"
           sodipodi:start="3.2848667"
           sodipodi:ry="10.814559"
           sodipodi:rx="9.0689621"
           sodipodi:cy="569.03467"
           sodipodi:cx="1142.2654"
           sodipodi:type="arc"
           id="path3614"
           style="fill:#c87137;fill-opacity:1" />
      </g>
      <g
         id="g3616"
         transform="matrix(0.44898885,0,0,0.48514852,-159.59866,-149.20131)">
        <path
           d="m 1094.0314,583.65823 a 90.675911,84.020798 0 0 1 98.043,-71.67153 90.675911,84.020798 0 0 1 82.3073,87.02564 90.675911,84.020798 0 0 1 -89.544,80.65781 90.675911,84.020798 0 0 1 -91.5536,-78.69691"
           sodipodi:open="true"
           sodipodi:end="3.0782547"
           sodipodi:start="3.2848667"
           sodipodi:ry="84.020798"
           sodipodi:rx="90.675911"
           sodipodi:cy="595.65509"
           sodipodi:cx="1183.7782"
           sodipodi:type="arc"
           id="path3618"
           style="fill:#552200;fill-opacity:1" />
        <path
           style="fill:#c87137;fill-opacity:1"
           id="path3620"
           sodipodi:type="arc"
           sodipodi:cx="1130.619"
           sodipodi:cy="547.40552"
           sodipodi:rx="9.0689621"
           sodipodi:ry="10.814559"
           sodipodi:start="3.2848667"
           sodipodi:end="3.0782547"
           sodipodi:open="true"
           d="m 1121.643,545.86137 a 9.0689621,10.814559 0 0 1 9.8058,-9.22505 9.0689621,10.814559 0 0 1 8.2319,11.20132 9.0689621,10.814559 0 0 1 -8.9557,10.3817 9.0689621,10.814559 0 0 1 -9.1568,-10.12931" />
        <path
           d="m 1144.9358,544.19761 a 9.0689621,10.814559 0 0 1 9.8058,-9.22505 9.0689621,10.814559 0 0 1 8.232,11.20132 9.0689621,10.814559 0 0 1 -8.9558,10.3817 9.0689621,10.814559 0 0 1 -9.1567,-10.12931"
           sodipodi:open="true"
           sodipodi:end="3.0782547"
           sodipodi:start="3.2848667"
           sodipodi:ry="10.814559"
           sodipodi:rx="9.0689621"
           sodipodi:cy="545.74176"
           sodipodi:cx="1153.9119"
           sodipodi:type="arc"
           id="path3622"
           style="fill:#c87137;fill-opacity:1" />
        <path
           style="fill:#c87137;fill-opacity:1"
           id="path3624"
           sodipodi:type="arc"
           sodipodi:cx="1142.2654"
           sodipodi:cy="569.03467"
           sodipodi:rx="9.0689621"
           sodipodi:ry="10.814559"
           sodipodi:start="3.2848667"
           sodipodi:end="3.0782547"
           sodipodi:open="true"
           d="m 1133.2893,567.49052 a 9.0689621,10.814559 0 0 1 9.8058,-9.22505 9.0689621,10.814559 0 0 1 8.232,11.20132 9.0689621,10.814559 0 0 1 -8.9558,10.3817 9.0689621,10.814559 0 0 1 -9.1567,-10.12931" />
      </g>
    </g>
  </g>
</svg>
