<?xml version="1.0" encoding="UTF-8" standalone="no"?>
<!-- Created with Inkscape (http://www.inkscape.org/) -->

<svg
   xmlns:dc="http://purl.org/dc/elements/1.1/"
   xmlns:cc="http://creativecommons.org/ns#"
   xmlns:rdf="http://www.w3.org/1999/02/22-rdf-syntax-ns#"
   xmlns:svg="http://www.w3.org/2000/svg"
   xmlns="http://www.w3.org/2000/svg"
   xmlns:sodipodi="http://sodipodi.sourceforge.net/DTD/sodipodi-0.dtd"
   xmlns:inkscape="http://www.inkscape.org/namespaces/inkscape"
   width="64"
   height="64"
   viewBox="0 0 63.999999 63.999999"
   id="svg2"
   version="1.1"
   inkscape:version="0.91 r13725"
   sodipodi:docname="arvore.svg">
  <defs
     id="defs4" />
  <sodipodi:namedview
     id="base"
     pagecolor="#ffffff"
     bordercolor="#666666"
     borderopacity="1.0"
     inkscape:pageopacity="0.0"
     inkscape:pageshadow="2"
     inkscape:zoom="2.1630081"
     inkscape:cx="118.29453"
     inkscape:cy="103.20999"
     inkscape:document-units="px"
     inkscape:current-layer="layer1"
     showgrid="false"
     inkscape:window-width="1440"
     inkscape:window-height="791"
     inkscape:window-x="0"
     inkscape:window-y="31"
     inkscape:window-maximized="1"
     units="px" />
  <metadata
     id="metadata7">
    <rdf:RDF>
      <cc:Work
         rdf:about="">
        <dc:format>image/svg+xml</dc:format>
        <dc:type
           rdf:resource="http://purl.org/dc/dcmitype/StillImage" />
        <dc:title></dc:title>
      </cc:Work>
    </rdf:RDF>
  </metadata>
  <g
     inkscape:label="Camada 1"
     inkscape:groupmode="layer"
     id="layer1"
     transform="translate(0,-988.3622)">
    <g
       id="g3442"
       transform="matrix(0.10245878,0,0,0.09127751,-3.2922228,983.09921)">
      <path
         sodipodi:nodetypes="ccccccccccccccccccccccccsccccccccccccccccscccccccccccccccccccccsscccccccccccccccccccccccccccccccccccccccccccccccccccccccccsccccccccccccccccccccccccccccccccccscscssccccccccccccccccccccccc"
         inkscape:connector-curvature="0"
         d="m 257.03212,430.45907 c -0.65548,5.85224 -1.29157,11.69404 -2.09796,17.52826 -0.50609,4.65207 -1.00413,9.28954 -1.73096,13.91152 -0.98451,4.1898 -1.55412,8.48517 -2.82065,12.59718 -1.22882,3.76794 -3.31216,7.12771 -5.02583,10.66644 -1.5366,3.53735 -3.46853,6.86175 -5.31296,10.23217 -2.22971,3.45793 -3.18579,7.38156 -4.0829,11.3606 -0.96842,5.16671 -2.00232,10.27632 -3.45095,15.32826 -1.59452,5.50138 -3.04369,11.03803 -4.46549,16.5876 -0.87068,4.79488 -3.08735,8.98127 -5.34506,13.19116 -2.49524,4.71082 -5.21724,9.28981 -8.12459,13.74116 -2.50744,4.18465 -5.37215,8.09373 -8.35264,11.9256 -3.53001,4.304 -6.74688,8.86316 -10.1943,13.23423 -3.92122,4.74812 -7.47757,9.76813 -10.92446,14.88493 -3.12404,4.39961 -5.6704,9.20433 -8.97141,13.46689 -3.28325,3.75696 -6.46954,7.59931 -9.78123,11.33013 -3.37393,4.19059 -7.70127,7.29905 -11.85387,10.5885 -3.63214,2.85543 -7.44292,5.45641 -11.13529,8.22527 -4.28044,3.31293 -8.24124,7.03403 -11.8378,11.11549 -2.56706,3.45393 -4.98728,6.95254 -7.97139,10.04407 -3.15613,2.89529 -6.55842,5.50966 -9.9366,8.12502 -10.98731,9.00322 -23.161591,16.58436 -36.022102,22.40164 -2.606993,1.24521 -5.186858,2.55913 -7.746911,3.90353 -0.730815,0.38377 -2.873924,1.63059 -2.163686,1.20774 6.271129,-3.73345 25.077025,-14.94608 18.84707,-11.14009 -7.530094,4.60028 -15.165215,9.01543 -22.747823,13.52316 l 19.067758,-11.31522 c -0.617445,0.4077 -3.825184,2.69596 -2.1085,3.53347 3.253557,0.60096 6.560362,0.63978 9.854778,0.67836 4.277363,-0.14926 8.556894,0.42096 12.722586,1.40209 5.47657,1.72108 10.69232,4.27148 15.98919,6.51438 4.36675,1.4934 8.72988,3.01238 13.01135,4.74834 3.97973,1.72772 7.03421,4.95008 10.32477,7.73256 3.29172,2.91606 6.40563,5.99199 9.88183,8.67679 4.03165,3.19178 8.05458,6.35682 12.76951,8.37721 3.89145,1.48056 8.04786,1.61234 12.14574,1.71135 4.14597,0.0506 8.2925,0.005 12.43859,-0.0147 4.9819,0.3814 9.62607,-0.94248 14.2124,-2.81024 4.81183,-1.90408 9.71635,-3.22944 14.38471,-5.51044 4.64475,-3.17271 9.51194,-5.17791 14.98976,-6.10103 6.1485,-0.93742 12.29997,-1.79425 18.50315,-2.25369 2.5127,0.0963 5.11047,-0.59789 7.62268,-0.34514 2.38809,0.24027 4.86061,1.21365 7.10528,2.02193 4.88534,1.37506 9.65987,3.12143 14.5255,4.56675 4.97416,1.22247 10.07757,1.64123 15.17273,1.84209 3.82042,0.0918 7.64261,0.075 11.46381,0.0609 4.13004,0.35821 8.13679,-0.44592 12.21391,-0.89661 4.8686,-1.73198 9.60784,-3.74782 14.55365,-5.2735 5.48078,-1.56522 11.13845,-1.97532 16.7918,-2.1933 6.15345,-0.17044 12.30951,-0.14837 18.46453,-0.15823 5.85732,-0.49352 11.48056,1.21347 17.19076,2.25563 5.6113,1.22868 10.54761,4.20628 15.17453,7.58109 5.08873,3.76966 9.92368,7.81563 15.41866,10.94692 3.90542,2.19841 8.17037,2.75228 12.52926,3.01215 5.0323,0.72675 9.4867,-0.70908 14.10614,-2.52291 3.92113,-1.52132 8.07761,-2.17782 12.01289,-3.64586 4.13176,-1.55658 7.96814,-3.86205 12.11593,-5.42105 4.47158,-1.59163 9.23414,-1.74594 13.9159,-1.9519 5.31311,-0.0969 10.62775,-0.0423 15.94162,-0.0499 4.8747,-0.0606 9.65751,-0.23688 14.42504,0.90537 5.13207,1.3216 9.95749,3.49847 15.11622,4.7457 5.86239,1.12057 11.85488,1.16737 17.7981,1.24042 2.87806,-0.14793 5.83986,0.36595 8.69055,-0.28098 0.85609,-0.19429 1.70718,-0.46443 2.49089,-0.86917 0.76528,-0.39523 2.86664,-1.92139 2.11079,-1.50734 -6.32998,3.4675 -12.56462,7.11683 -18.84692,10.67525 2.82627,-3.87243 4.33003,-8.63973 5.90965,-13.17244 1.31652,-4.25626 1.98326,-6.82805 -0.78473,-10.52507 -3.24812,-3.17853 -7.83943,-3.85335 -11.93523,-5.27121 -6.62744,-2.28228 -13.44856,-3.851 -20.18714,-5.72491 -5.47845,-1.36609 -10.94806,-2.35116 -16.1829,-4.55251 -5.87389,-2.49115 -11.85204,-4.68065 -17.57462,-7.53545 -5.9202,-2.82509 -11.51,-6.35367 -16.8973,-10.13446 -4.7517,-3.03746 -9.35057,-6.26117 -13.70881,-9.87812 -5.17499,-4.59869 -9.88836,-9.78945 -14.07751,-15.34924 -3.46348,-4.58299 -6.0221,-9.78981 -8.50437,-14.98064 -2.01022,-4.94785 -3.97235,-9.91767 -5.5527,-15.031 -1.51935,-5.39553 -1.54971,-11.07897 -1.65541,-16.65243 0.13394,-6.5685 0.0277,-13.05278 -1.17836,-19.5116 -1.03304,-4.97642 -1.70326,-10.00263 -2.0321,-15.07647 -0.25692,-4.50024 -0.22191,-9.01051 -0.19536,-13.51623 0.037,-5.49833 0.0225,-10.99678 0.042,-16.49519 -0.0128,-4.87263 -0.0527,-9.74474 -0.0269,-14.61737 0.031,-5.71753 0.0592,-11.43506 0.032,-17.15264 -0.01,-6.56882 0.0566,-13.13738 0.0728,-19.70615 -0.005,-6.58176 -0.0333,-13.16333 -0.0743,-19.74498 -0.0473,-4.66446 -35.03921,-2.82575 -5.83573,-11.71277 0.51934,-4.8164 -4.70298,-8.99999 -4.05613,-13.79752 0.46232,-5.09667 5.33938,-8.7205 5.87187,-13.80819 0.0411,-5.0015 3.86265,-11.13847 5.40021,-15.852 1.46831,-4.53105 2.0234,-7.39596 3.37093,-11.96684 1.87397,-5.01357 3.24943,-14.23999 5.42009,-19.12232 1.69621,-4.75956 14.59156,13.49405 17.01285,9.09301 l 19.20019,-32.94118 0,0 c -2.53732,4.28193 5.395,5.5629 3.88343,10.36039 -2.18101,4.77597 -9.13934,11.50456 -11.39802,16.24505 -1.34552,4.61102 0.35891,6.94739 -1.15484,11.50112 -1.47927,4.57946 -4.34971,9.28939 -4.18627,14.20996 -0.48954,5.12712 -4.87464,11.84749 -5.32918,16.97344 -0.54382,4.80238 -2.08618,8.9633 -2.58361,13.77021 -0.68129,4.55671 0.4949,11.35361 0.52119,15.96052 -0.0409,6.60765 -4.56021,12.93456 -4.56541,19.54232 0.0162,6.54325 0.0826,13.08625 0.073,19.62955 -0.0269,5.70643 9.6e-4,11.4128 0.0321,17.11917 0.0256,4.88411 -0.0161,9.76766 -0.0349,14.65176 0.0116,5.4895 -0.0187,10.97895 0.006,16.46841 0.0254,4.45484 0.0166,8.91121 0.16848,13.36396 0.24631,4.9893 0.78105,9.95406 1.77352,14.84997 1.20892,6.60625 1.53507,13.17501 1.33338,19.8987 0.12021,5.34203 0.15013,10.77001 1.4619,15.97397 1.43967,5.0221 3.38162,9.86322 5.31742,14.70026 2.43335,5.02811 4.83087,10.13245 8.12586,14.63296 4.0764,5.43674 8.7426,10.41078 13.9034,14.76828 4.32415,3.55593 8.9391,6.63866 13.58096,9.73064 5.29216,3.71344 10.77165,7.17914 16.63827,9.85238 5.72429,2.76826 11.69599,4.90158 17.56757,7.30961 5.17872,1.93566 10.59769,2.87494 15.88755,4.4356 6.79829,1.84984 13.64445,3.52696 20.34375,5.74311 4.64877,1.39279 9.54951,2.60979 12.89219,6.49501 3.13091,4.38082 3.37654,7.51732 1.8826,12.70417 -1.5465,4.83841 -3.47142,9.60386 -5.58495,14.19367 -3.78953,2.47111 -17.96418,15.10244 -27.74003,16.22594 -2.90205,0.33353 -5.84263,-0.0484 -8.74949,0.0428 -6.08803,-0.14869 -12.24309,-0.20986 -18.20277,-1.65096 -5.06092,-1.41744 -9.90185,-3.55585 -15.05609,-4.61502 -4.68465,-0.73569 -9.41939,-0.46322 -14.14612,-0.52832 -5.3026,-0.0322 -10.60857,-0.0654 -15.90709,0.19073 -4.57506,0.28548 -9.17191,0.72151 -13.43229,2.61362 -4.05392,1.83121 -8.00884,3.94785 -12.24257,5.30778 -3.98563,1.18551 -8.04205,2.13641 -11.92376,3.66831 -4.80904,1.65649 -9.65575,2.34546 -14.72756,1.68741 -4.62649,-0.44785 -9.04887,-1.46553 -13.0922,-3.95944 -5.43968,-3.29292 -10.17381,-7.57443 -15.40915,-11.18709 -4.5289,-3.03996 -9.33427,-5.6512 -14.71077,-6.65574 -5.6022,-1.11092 -11.16009,-2.37269 -16.9133,-1.90059 -6.12286,-0.0203 -12.24968,-0.0357 -18.36793,0.24178 -5.57427,0.35662 -11.15022,0.96816 -16.49218,2.75205 -4.95201,1.65484 -9.72061,3.96165 -14.85628,4.94028 -4.13488,0.58141 -8.26181,0.85249 -12.43951,0.69589 -3.83921,0.003 -7.68171,0.0436 -11.51611,-0.19495 -5.19355,-0.36824 -10.3826,-0.9963 -15.42685,-2.37376 -4.8664,-1.5125 -9.69656,-3.14312 -14.5812,-4.59306 -4.67731,-1.38112 -9.27012,-1.564 -14.11191,-0.93857 -6.13978,0.54419 -12.24594,1.37009 -18.3127,2.49385 -5.29848,1.36015 -9.9603,3.90878 -14.7355,6.58891 -4.71751,2.05229 -9.68444,3.3392 -14.4366,5.30809 -4.8419,1.61342 -9.71655,2.57751 -14.83138,2.22569 -4.17333,0.0213 -8.34806,0.0731 -12.52025,-0.0625 -4.3113,-0.24732 -8.64302,-0.66632 -12.62309,-2.5451 -4.7165,-2.35575 -8.84218,-5.62256 -13.02929,-8.84568 -3.53662,-2.67976 -6.64244,-5.85465 -10.02892,-8.72769 -3.10122,-2.62864 -5.98874,-5.65638 -9.85065,-7.07801 -4.33324,-1.64082 -8.68986,-3.21268 -13.024502,-4.84961 -5.129852,-2.30074 -10.256251,-4.84542 -15.74864,-6.06234 -4.138723,-0.71238 -8.293641,-1.16332 -12.497692,-1.02298 -3.73461,-0.10542 -7.756157,0.006 -11.020446,-2.123 -0.847444,-1.01066 -1.383594,-1.38185 -1.641622,-2.7656 -1.937428,-10.38987 34.651221,-18.58976 24.597008,-18.56841 -6.320657,3.76963 -25.318288,15.01424 -18.96197,11.30886 10.868089,-6.33547 21.316762,-13.34123 32.750271,-18.523 8.947703,-4.52775 4.427573,-2.32844 -14.974636,9.28569 -0.857539,0.51333 1.710196,-1.03595 2.548441,-1.58209 2.422788,-1.57848 4.711752,-3.34949 6.871604,-5.29201 3.329954,-2.60278 6.608425,-5.26775 9.985564,-7.80641 3.09325,-2.99866 5.91258,-6.1329 8.12424,-9.90692 3.53675,-4.21954 7.39607,-8.11199 11.64368,-11.57969 3.61079,-2.88912 7.42146,-5.48031 11.16118,-8.1884 4.08292,-3.32684 8.58329,-6.18119 12.05198,-10.22792 3.30782,-3.67266 6.42135,-7.51812 9.71318,-11.19808 3.59525,-4.05049 6.17331,-8.81653 9.20791,-13.31074 3.50223,-5.10171 6.84818,-10.28879 10.79857,-15.04725 3.50805,-4.28785 6.64625,-8.86975 10.17019,-13.14473 2.87045,-3.89759 6.07882,-7.54215 8.45018,-11.81494 2.98874,-4.31608 5.64889,-8.85084 8.18057,-13.46518 2.11754,-4.117 4.79277,-7.97848 5.544,-12.68573 1.65902,-5.51114 2.94762,-11.15389 4.59444,-16.67173 1.42844,-5.00092 2.58503,-9.97346 3.35154,-15.12236 0.9368,-4.08039 1.47558,-8.36657 3.77277,-11.94514 1.71558,-3.43167 3.8835,-6.611 5.33294,-10.18071 1.75315,-3.45422 3.62743,-6.84541 5.16222,-10.40077 1.61161,-3.88935 1.92041,-8.1194 3.03725,-12.17382 0.75274,-4.63272 1.42189,-9.24524 1.85897,-13.92353 0.83271,-5.77919 1.74668,-11.53651 1.93694,-17.39005 l 21.96735,-11.18421 z"
         id="path3410"
         style="fill:#803300;fill-opacity:1" />
      <path
         sodipodi:nodetypes="ccccccccccsccccccccccccccccccscccccsccsccccccccccscccccccccccccccccccscscsccccccccccsscsscscssccccccccccccccscccsscccccccccccccccssccccscccsccccsccccccccccccssscscccccccccssscscscccccccccccccccccccccccccscccccsscccscccccccccccccccccccccccccccc"
         inkscape:connector-curvature="0"
         d="m 153.70985,349.71371 c 6.31616,1.98698 12.57572,4.16484 18.79899,6.42688 6.64977,3.02259 13.55659,5.49331 19.94048,9.06344 6.37313,3.89152 12.88963,7.62097 18.70674,12.32456 5.24992,4.2277 8.92499,9.66296 11.34751,15.89052 1.37004,4.31935 1.17259,8.86951 2.87056,13.08531 2.07415,4.20851 5.74518,7.15611 9.12886,10.26748 4.9156,4.71073 10.23606,8.93318 16.50157,11.65854 4.80677,1.87871 10.00185,0.85085 15.02628,1.09911 7.93313,0.54202 15.88186,0.75939 23.83075,0.88927 5.67469,0.68509 11.23083,-0.7716 16.84917,-1.0689 1.8904,-0.10004 3.81848,0.0467 5.70551,0.14661 5.08646,0.53004 12.40196,0.50733 15.78577,3.96927 3.2232,3.4898 1.62933,11.03955 3.09775,15.54096 2.31666,7.13853 3.46756,14.55528 5.66312,21.72776 1.16365,2.41854 2.2595,6.89062 5.3585,7.74764 0.57649,0.15942 3.00165,-0.1497 3.41389,-0.19125 5.71329,-1.52805 11.44819,-2.90369 17.30736,-3.74867 5.68065,-0.81207 11.41046,-1.07816 17.14125,-1.16206 6.20035,0.01 12.40081,0.007 18.60111,0.0322 6.60979,-0.48491 11.41876,1.22434 17.4229,3.52328 4.52122,1.8076 9.0055,3.42487 13.82154,4.21271 5.97274,0.78892 17.55135,-14.46279 23.46872,-15.53713 7.88079,-1.89981 2.71276,5.09893 10.54202,2.98362 4.78972,-12.43125 12.82805,-2.45841 20.14209,-2.06582 9.67445,-2.54436 19.98656,-5.16483 29.31268,-8.65573 6.43921,-1.9719 12.96393,-0.80152 19.49374,1.19862 4.85422,1.5723 6.00862,-0.48597 9.25067,3.02593 1.88501,1.75313 2.74,10.69602 5.33964,9.57991 0.68404,-0.29367 2.56709,-1.50805 1.91481,-1.14931 -6.19079,3.40479 -12.3544,6.85878 -18.53159,10.28817 6.30767,-5.26575 7.35184,-19.2463 12.01138,-25.95157 3.87905,-5.97396 8.1832,-7.58333 11.78889,-13.7178 6.93429,-10.59732 19.26293,-20.972 31.5539,-23.8822 4.14526,-0.92372 4.93228,-1.32727 9.06617,-0.8493 2.68976,-0.0219 11.28876,7.76376 13.95711,6.99626 0.7732,-0.22239 1.4452,-0.70752 2.16781,-1.06128 l -18.82355,10.5818 c 0.64834,-0.5787 1.40262,-1.05712 1.94502,-1.73612 3.90014,-4.88238 0.0501,-19.38575 1.51709,-25.36106 1.67175,-7.92398 3.53569,-13.16008 4.70797,-21.16977 0.85055,-5.53782 0.55312,-12.85736 2.72219,-18.0303 2.71148,-6.68454 5.07494,-13.94111 8.89544,-20.028 2.42897,-4.16096 1.45473,-13.10556 3.72218,-17.35849 2.09784,-4.85139 6.00225,-11.24249 6.67378,-16.42706 1.06756,-8.44731 -2.50274,-18.07387 -1.08152,-26.47156 1.99596,-8.80998 4.70317,-12.43557 6.04917,-21.37626 1.46635,-12.5465 2.58573,-17.62335 2.62763,-30.23702 -0.0779,-7.61709 5.0918,-12.81083 1.24946,-19.63828 -1.89334,-2.646 -7.80506,-2.72978 -10.67509,-3.86857 -2.0569,-0.81615 -10.674,-2.50492 -12.66205,-3.48969 -5.61261,-2.25828 -8.98674,-5.04356 -14.06552,-8.31791 -4.954,-3.45848 -11.64743,-7.42099 -15.99909,-11.63062 -3.75576,-4.00671 -8.83857,-8.05364 -12.87151,-11.78534 -4.64673,-3.85541 -1.96858,-6.34533 -7.02176,-9.66287 -4.5362,-2.34739 -10.39016,0.005 -15.39733,-0.23405 -6.18795,-0.18667 -14.06363,4.11671 -20.25315,4.12791 -2.98065,0.23305 -11.63825,2.03166 -14.61473,2.28865 -3.04102,0.26253 -14.83306,-1.63882 -17.77636,-0.8851 -5.77695,1.92239 -8.87498,-0.23327 -14.89846,0.65002 -5.33301,0.96229 15.98748,-7.08674 11.22694,-9.65552 -5.43166,-4.43184 -19.91297,-9.62043 -24.2196,-15.08691 -5.02268,-5.72428 -14.23313,-9.76871 -18.06659,-16.31364 -4.48641,-6.69764 -9.52007,-14.61876 -14.01966,-21.30114 -2.98868,-4.16836 -14.2863,4.52883 -19.10726,4.17378 -8.15747,-0.29638 -19.69306,-1.89492 -27.8547,-1.8911 -7.66966,-0.119 -8.34264,-2.25196 -16.01008,-2.53625 -5.55723,-0.20594 -15.87529,0.83955 -21.37651,0.34027 -18.26951,-2.43302 -9.36042,3.93596 -27.73206,2.45709 -6.0351,-0.0642 -14.04099,-19.248095 -19.86834,-16.817672 -0.99647,0.415602 -1.8805,1.061354 -2.82075,1.592031 32.1713,-19.101554 17.55609,-10.742278 11.35172,-4.498621 -2.50076,2.516595 -5.64398,20.642482 -8.16485,23.141642 -7.78124,4.50343 -14.44714,-5.9221 -22.50164,-1.92791 -1.01872,0.50517 -11.84009,6.75436 -12.94593,6.48961 -5.50381,-1.31774 -13.32995,-7.44254 -17.29021,-11.15753 -5.62326,-5.13578 -4.57485,-10.445326 -10.55763,-15.179986 -4.68006,-2.843199 -20.00565,2.603793 -25.23939,0.935633 -4.16099,-1.156644 -0.36257,-9.927977 -4.64976,-9.994105 -4.98782,0.23842 -24.64481,19.096168 -10.81889,3.41684 -5.67585,0.341045 -12.93842,3.574366 -18.48027,4.803642 -7.43441,1.474304 -11.2341,-1.665833 -18.66998,-0.146759 -6.18528,1.455252 -10.57134,6.530461 -16.89758,6.971865 -5.11476,0.35872 -10.73738,3.95882 -15.81577,3.3131 -3.13032,-0.22267 -4.98161,-5.123345 -7.72342,-3.618237 -0.66021,0.362417 -0.89071,-4.612673 -0.23331,-4.98016 6.31756,-3.531533 14.28415,-8.248356 20.58414,-11.811145 -8.47186,7.027733 -8.83404,17.588352 -18.86853,23.028742 -0.59258,0.32128 -10.30117,-5.89279 -10.95114,-5.71416 -0.65003,0.17865 0.96006,6.5819 0.31732,6.78522 -2.56958,1.08015 -7.66763,-5.32092 -10.326772,-4.76012 -1.526377,0.3219 -2.873715,1.02032 -4.281928,1.65163 -7.550292,3.75783 -11.569267,5.8126 15.96764,-9.278607 1.00714,-0.55195 -1.92025,1.264033 -2.83148,1.963062 -2.91269,2.234398 2.1983,15.743695 -0.21101,18.492495 -3.85366,4.48348 -2.80682,3.58004 -3.29037,9.26869 -0.28634,5.45601 4.38341,9.77309 3.90371,15.21866 -0.6319,6.99623 -11.287239,9.82132 -14.008166,16.15957 -2.145206,5.94664 2.745432,10.27034 1.125552,16.39313 -1.30334,8.24853 22.652294,15.47521 20.818024,23.61481 -2.0331,8.44265 -32.477274,20.6002 -32.387179,29.2803 0.211256,7.78342 -10.909449,14.16523 -10.830114,21.95095 0.326237,7.2489 -0.298858,14.52442 -2.643283,21.40711 -2.212572,5.53435 -4.967712,10.80616 -6.877959,16.46121 -1.239407,3.89051 -1.93246,7.6823 -0.820475,11.6417 3.323325,9.88373 2.888735,20.53024 3.034749,30.81571 0.697397,20.52524 -1.738089,40.95033 -3.762665,61.33453 -0.685351,8.89774 -2.112235,17.71192 -2.991349,26.5887 0.0065,3.20515 -1.452121,7.70665 0.817424,10.51086 0.3371,0.41652 0.829273,0.67882 1.243909,1.01822 3.566808,1.91718 7.711555,1.90836 11.661183,2.00227 6.427187,-0.5578 12.643922,-2.24436 18.778931,-4.16038 5.074232,-1.75678 9.946568,-4.00886 14.630318,-6.62761 1.51246,-0.84564 5.98617,-3.49299 4.47168,-2.651 -16.333024,9.08044 -22.007473,13.11988 -13.165313,7.04696 5.867483,-4.28574 7.448063,-6.59268 8.542153,-13.70909 0.59648,-5.8336 0.37517,-11.70167 0.3442,-17.55321 -0.10477,-5.89972 1.38489,-9.87302 5.39496,-14.08238 9.55093,-8.47174 20.55131,-15.09566 33.06843,-16.04553 5.06188,-0.19849 10.12941,-0.11465 15.19372,-0.0976 4.48338,-0.37134 8.71641,0.47207 12.96952,1.75266 5.25143,1.92443 9.5461,5.2926 13.47518,9.17566 2.39791,2.23086 1.15432,1.23464 3.70947,3.01508 l -20.57376,13.03112 0,0 c -2.67522,-2.08755 -1.39783,-0.97503 -3.8323,-3.33743 -3.73141,-3.63947 -7.86617,-6.62324 -12.95454,-8.07676 -4.08483,-1.13233 -8.22802,-1.44685 -12.46547,-1.27897 -5.03752,-0.0203 -10.09117,-0.0899 -15.11292,0.36704 -2.05456,0.28022 -4.0445,0.59311 -5.99197,1.34458 -0.6455,0.24908 -2.48851,1.20212 -1.89579,0.84519 10.94003,-6.58805 26.11567,-15.17263 16.96081,-9.9862 -4.1658,3.66966 -6.41049,6.41231 -6.30559,12.31952 0.0908,5.96033 0.092,11.93151 -0.28906,17.88235 -0.70833,7.71336 -1.50696,10.70177 -7.86584,15.62028 -10.92579,7.81179 -3.09445,2.36313 -27.743969,16.77619 -6.186475,3.61735 -12.67691,6.70685 -19.508255,8.90627 -6.393053,1.89286 -12.92268,3.77485 -19.647041,3.78854 -4.438321,-0.27335 -8.978576,-0.64141 -12.639938,-3.44438 -0.554861,-0.5759 -1.199109,-1.07743 -1.664582,-1.72771 -2.432639,-3.3985 -1.676692,-7.97855 -1.350633,-11.84045 1.070462,-9.03082 2.82654,-17.9595 3.801803,-27.00326 2.596027,-20.26323 5.417367,-40.64106 4.090583,-61.12313 -0.48423,-9.91911 -0.45591,-20.20103 -3.799449,-29.67633 -0.514139,-1.50379 -1.13124,-2.96118 -1.237383,-4.57349 -0.185637,-2.81981 0.915084,-5.71759 1.42355,-8.43753 1.816641,-5.74887 4.477036,-11.11109 6.911679,-16.61014 2.791205,-6.50684 3.434583,-13.66206 3.262534,-20.69635 -0.111829,-7.759 -0.331447,-15.51362 -0.604844,-23.2685 0.0027,-9.04231 1.17169,-17.50996 3.362917,-26.3079 1.731953,-8.05877 3.668714,-16.08123 4.786957,-24.25366 1.321274,-6.37343 4.349765,-12.1129 6.469168,-18.23478 2.463428,-6.19851 6.02162,-12.04584 6.822772,-18.78603 0.559596,-5.43106 0.514086,-10.85919 0.622753,-16.31511 0.441557,-6.00183 0.985555,-12.154 4.729035,-17.13264 9.316718,-11.60235 22.104904,-19.196365 36.073673,-24.702759 4.10248,-1.32316 8.42238,-1.566272 12.50206,-3.000694 8.41834,-2.715702 17.07711,-9.246647 -15.55178,9.850609 -0.58298,0.341212 1.19908,-0.625947 1.76909,-0.988412 0.61909,-0.39367 1.2131,-0.82707 1.79288,-1.276615 0.62355,-0.483485 1.20956,-1.013542 1.81434,-1.520312 7.56948,-4.542061 15.09956,-9.150426 22.70843,-13.626183 3.50842,-2.063755 7.68728,-2.374562 11.64308,-1.999182 4.97004,0.505597 9.95839,0.332107 14.93856,0.0055 6.26297,-0.46708 12.50566,-1.209809 18.61712,-2.707501 7.37121,-1.597788 14.5364,-3.983329 21.94489,-5.41592 5.65324,-1.202816 11.35511,-2.026216 17.11486,-2.520655 4.42572,-0.532673 8.846,-0.8937 13.30901,-0.625755 4.44719,0.147546 8.9358,0.467805 13.16931,1.953156 5.31576,2.011666 10.26461,4.796027 14.97221,7.97443 5.78316,4.985553 10.34984,11.126015 15.98053,16.281347 3.00476,2.673461 6.12621,5.843937 9.96235,7.343509 0.99151,0.387588 2.05662,0.656915 3.12099,0.677695 0.95395,0.01863 3.59716,-1.096291 2.80668,-0.561967 -5.79496,3.917089 -11.98679,7.212309 -17.98018,10.818469 3.77809,-3.2953 6.74653,-7.28551 10.34873,-10.750109 6.89903,-6.635481 24.27627,-15.117464 26.94669,-16.695135 1.05507,-0.400188 2.07809,-0.8981 3.16521,-1.200564 6.0287,-1.677332 12.39331,0.03755 18.46605,0.352505 18.16748,1.978146 36.27914,4.447829 54.46443,6.271796 13.56059,0.906078 27.10054,1.025907 40.68777,0.757232 8.34208,-0.07144 16.70213,-0.32981 25.03518,0.133742 5.41983,0.716622 8.66594,2.269944 11.77663,6.9576 4.3026,6.849593 8.17128,13.970223 12.74146,20.658723 3.87795,6.40032 7.80345,12.80417 12.7119,18.48454 4.10476,5.17245 7.90849,10.80454 13.37327,14.65784 4.53297,1.95888 8.42892,1.9981 13.23527,1.10122 5.92902,-1.01736 11.70086,-2.6544 17.46645,-4.35381 6.08887,-1.35884 12.17405,-1.82485 18.41461,-1.52061 6.2421,-0.0393 12.48931,-0.0924 18.72765,0.15974 5.36251,0.38685 10.61909,1.27923 15.30144,4.11596 5.01348,3.54721 9.75727,7.45304 14.45825,11.40124 4.05198,3.73707 7.75809,7.76889 11.5197,11.79441 4.30624,4.01906 9.13054,7.39964 13.99095,10.7131 5.07218,3.15405 10.46381,5.6773 15.94748,8.03532 4.86547,2.26836 10.31825,3.69064 13.52672,8.35417 3.76758,7.37694 3.93061,15.95586 3.81581,24.08065 -0.15767,12.67085 -0.27067,25.36024 -1.19725,38.00231 -1.10693,9.00083 -3.45837,17.68095 -5.63669,26.47321 -1.56422,8.31209 -2.16664,16.77237 -3.06105,25.17691 -0.651,5.34986 -0.92323,10.7343 -2.69725,15.8803 -1.97905,4.58965 -5.33664,8.2144 -8.03441,12.38189 -3.80742,5.99279 -7.83613,11.8874 -10.4207,18.55298 -0.65166,1.44537 -1.69987,3.65627 -2.20665,5.19856 -1.09642,3.33676 -1.1907,6.92299 -2.15835,10.29443 -1.33992,8.1314 -2.64183,16.27178 -4.22257,24.35976 -1.93238,8.42654 -3.75593,17.29745 -8.34937,24.73019 -19.6055,11.10285 -18.39216,15.01261 -34.31677,13.07021 -3.97765,-0.4682 -10.48178,4.50875 -14.37275,5.88716 -8.74043,3.39831 0.95991,-4.89379 19.72163,-16.06379 0.61833,-0.36813 -1.32598,0.57952 -1.92287,0.98149 -2.0921,1.40892 -3.517,3.6007 -5.07691,5.51781 -3.81764,6.09634 -6.99334,12.56051 -10.76395,18.68808 -4.66175,6.79095 -9.42598,13.66305 -15.15094,19.59441 -7.73027,4.56907 -15.3457,9.33829 -23.19082,13.70723 -3.64641,2.03068 -7.87222,-0.81458 -10.35047,-3.26979 -2.88693,-3.27102 -5.03291,-7.15862 -9.565,-8.31477 -5.8179,-1.21498 -11.47577,0.14279 -17.00964,2.10842 -9.16746,3.53764 -18.08693,7.77602 -27.66088,10.17938 -12.23901,3.4865 -24.56456,6.52534 -37.07177,8.90156 -6.18601,0.80634 -12.47581,1.06137 -18.64691,-0.0696 -4.82548,-1.04437 -9.36472,-2.83252 -13.94942,-4.63876 -5.86745,-2.20087 -10.53453,-3.16235 -16.87204,-2.8422 -6.22451,0.005 -12.45008,-0.0548 -18.67361,0.0876 -5.61908,0.15035 -11.24232,0.43842 -16.80096,1.32921 -5.95298,1.05924 -11.75005,2.89193 -17.75401,3.57589 -0.75182,-0.0736 -1.52132,-0.0426 -2.25545,-0.22066 -4.58492,-1.11177 -6.38804,-6.22507 -7.8894,-10.10611 -2.15828,-7.14565 -3.3517,-14.53266 -5.86039,-21.57125 -1.32462,-4.14099 -3.55916,-7.77319 -6.51592,-10.97223 -3.11112,-3.10359 -6.10845,-5.95454 -10.77434,-6.04366 -7.41487,-0.21041 -14.76052,1.31021 -22.19241,0.73342 -8.0459,-0.13438 -16.08961,-0.30631 -24.12778,-0.70199 -5.30901,-0.009 -10.65036,0.54681 -15.57012,-1.94124 -6.25907,-3.14596 -11.73684,-7.52391 -16.87078,-12.2664 -3.74812,-3.29663 -7.64622,-6.50894 -9.85735,-11.10696 -1.77541,-4.2692 -1.84092,-8.73748 -2.82883,-13.20647 -2.07137,-5.94631 -5.51605,-10.95628 -10.54223,-14.84078 -5.76111,-4.56608 -12.11023,-8.2985 -18.46711,-11.96982 -6.37363,-3.3648 -13.10644,-6.02379 -19.77607,-8.73401 -6.14262,-2.20948 -12.28597,-4.68847 -18.73628,-5.81125 l 19.99944,-14.15384 z"
         id="path3414"
         style="fill:#008000" />
      <path
         sodipodi:nodetypes="cssscsccsscsssssssssssssssssssssssssscssssssscsssssssssssscsc"
         inkscape:connector-curvature="0"
         id="path3426"
         d="m 441.6996,474.55877 c 0.0339,-28.36591 3.71538,-64.89847 15.0328,-88.85187 2.75189,-5.82439 5.00344,-11.01423 5.00344,-11.53298 0,-0.51877 -3.81403,36.14854 -7.79754,30.52795 l -15.09558,-21.29933 18.65715,4.35654 c 23.41476,5.46747 -2.01529,50.0371 -5.09216,75.31588 -0.25038,34.1262 -67.67599,12.52356 -93.83394,16.63244 -21.13008,3.46584 -22.97633,2.59795 -28.52638,-18.41129 -3.16278,-11.97236 -0.39952,-18.8102 -6.22914,-24.89433 l -8.07256,0.0449 -30.74017,-5.0525 c -28.52234,-4.68797 -43.61071,10.23185 -54.49109,-9.93366 -3.7556,-6.96058 -7.81923,-11.24035 -9.08615,-16.20646 -4.4412,-17.40861 -4.09777,-23.40751 -20.76546,-33.67207 -11.95823,-7.36432 -39.91179,-17.83125 -45.12159,-17.83125 -1.54145,0 -3.66586,1.55282 -7.46549,4.13687 -3.79962,2.58403 -13.14941,7.51393 -19.7481,10.95531 -6.5987,3.4414 -11.13395,11.03556 -13.85212,14.13139 -4.48363,5.10656 -2.98592,2.24394 -3.07055,13.06195 -0.13696,17.50699 0.12722,21.55726 -9.47269,26.31714 -8.676054,4.3018 -41.177462,10.73722 -45.36152,7.8961 -2.085708,-1.41628 -3.32287,-11.04462 -0.130018,-43.82781 4.054249,-41.62773 5.437945,-68.44184 2.543902,-85.4559 -1.820185,-10.70086 -1.983205,-12.77489 2.431935,-23.05117 4.279118,-9.95968 9.195917,-12.12759 10.334369,-40.47438 1.395633,-34.75044 5.917896,-58.39057 15.682184,-81.97859 4.314462,-10.42263 5.880439,-17.04627 6.748382,-28.54373 1.180283,-15.63495 4.841554,-24.99569 9.776586,-24.99569 1.40272,0 6.80545,-2.125423 12.00606,-4.723167 7.78059,-3.886462 12.38335,-4.902956 25.98225,-5.738039 9.08962,-0.558178 24.3354,-2.947547 33.8795,-5.30971 9.5441,-2.362163 24.21347,-4.722227 32.59859,-5.244586 20.82798,-1.2975 26.53669,1.055919 44.9957,18.549481 7.91041,7.496691 16.01958,14.149911 18.02037,14.784941 4.11484,1.306 22.69829,-7.99088 30.29118,-15.153996 5.06348,-4.776866 4.75128,-4.783801 58.36559,1.296556 16.27631,1.84588 39.25978,3.18729 54.63503,3.18872 18.74296,0.002 27.30211,0.60936 29.1346,2.06829 1.42714,1.1362 8.26159,11.09055 15.18768,22.12077 14.15752,22.54673 26.0129,36.1556 33.00654,37.88844 2.9454,0.72979 10.09354,-0.1537 19.08539,-2.35892 17.97954,-4.40942 48.72977,-4.9486 57.05012,-1.00033 2.92704,1.38897 12.97433,9.53524 22.32731,18.10281 13.41458,12.28809 20.24543,17.15357 32.34925,23.04174 l 15.34383,7.46434 2.06891,8.62415 c 2.76852,11.54051 0.94291,49.11144 -3.23959,66.66995 -1.73213,7.27169 -4.02146,20.59318 -5.08739,29.60331 -2.22904,18.84158 -3.12531,21.67615 -10.02457,31.70387 -8.76902,12.74534 -14.48502,27.25565 -17.18966,43.63664 -1.42574,8.63514 -3.35236,19.04689 -4.28138,23.13722 -1.66484,7.33 -1.78922,7.43927 -8.64683,7.59775 -8.85398,0.2046 -21.73882,6.7718 -29.39759,14.98351 -3.25233,3.48714 -9.04919,11.73206 -12.88191,18.32204 -3.83271,6.58997 -7.38578,11.98177 -7.89569,11.98177 -0.50991,0 -3.1367,-1.85924 -5.83731,-4.13165 -7.12279,-5.99343 -15.50975,-5.42366 -36.47872,2.47818 -18.34674,6.9137 -24.81971,5.88673 -32.60362,5.8904 -4.51063,0.002 4.75734,-0.83814 -6.21563,0.63583 z"
         style="fill:#008000" />
      <path
         sodipodi:nodetypes="cssssssssssscsssssssscssssscsssscssscc"
         inkscape:connector-curvature="0"
         id="path3428"
         d="m 414.00459,746.50089 c -2.25269,-0.89883 -4.36137,-4.95339 -8.93123,-8.40366 -15.52124,-11.71865 -14.59966,-13.73177 -40.10385,-14.46153 -21.69584,-0.62079 -23.7442,1.51527 -36.78786,5.69483 -12.46382,3.99375 -18.62349,6.45926 -32.63926,5.63951 -9.67107,-0.56564 -19.90512,-3.56019 -26.01316,-5.72849 -8.17511,-2.90209 -11.58831,-2.97701 -23.17008,-2.29091 -14.23893,0.8435 -17.05666,2.56802 -36.32361,10.86049 -12.19317,5.24791 -35.03382,6.74742 -45.25284,3.68572 -3.3058,-0.99044 -12.18803,-7.62033 -19.73829,-13.88404 -11.20358,-9.2945 -17.80395,-9.58251 -31.22817,-14.66638 -9.04678,-3.42608 -22.486663,-2.97418 -25.671383,-6.96141 l -10.62617,-4.94256 14.534423,-10.40154 c 11.2319,-8.03809 28.23032,-20.37031 33.38913,-27.3419 2.6799,-3.6216 16.05692,-15.87357 24.23758,-22.42362 17.04287,-13.6458 18.553,-21.11312 28.6193,-35.93641 3.93445,-5.79373 13.25505,-16.34769 20.71244,-26.19783 18.42951,-24.3427 20.6401,-30.52161 27.19011,-56.52595 3.48901,-13.85179 9.223,-29.67905 13.4523,-38.0907 4.99268,-9.92994 6.29972,-15.29465 10.44553,-24.80183 l 4.5316,-16.69795 21.80104,-0.10762 c 25.78362,-0.12728 30.5391,0.85565 36.86617,22.92698 7.39676,25.80276 8.92566,25.3123 27.0108,21.57222 7.09642,-1.46757 -37.15447,-2.5824 29.52232,-2.5824 15.81153,0 26.4889,-2.37302 35.82842,5.12623 l 12.05659,3.72275 3.71738,57.6211 c 4.41394,68.41802 1.58646,83.06569 7.22877,96.58847 13.017,31.19749 41.24051,51.46636 87.91921,64.15843 20.77894,5.64985 29.40653,8.11519 31.15561,10.94525 0.65554,1.06069 1.60578,7.26194 1.02008,10.38434 -0.95049,5.06649 0.23158,7.73696 -4.48098,8.15807 -2.22114,0.19849 -13.97606,-0.79271 -20.33301,-2.61063 -16.66161,-4.7648 -50.12559,-3.76712 -62.23148,1.10278 -22.68327,9.12493 -35.10578,10.59202 -43.93625,7.06867 z"
         style="fill:#803300;fill-opacity:1" />
    </g>
  </g>
</svg>
