<?xml version="1.0" encoding="UTF-8" standalone="no"?>
<!-- Created with Inkscape (http://www.inkscape.org/) -->

<svg
   xmlns:dc="http://purl.org/dc/elements/1.1/"
   xmlns:cc="http://creativecommons.org/ns#"
   xmlns:rdf="http://www.w3.org/1999/02/22-rdf-syntax-ns#"
   xmlns:svg="http://www.w3.org/2000/svg"
   xmlns="http://www.w3.org/2000/svg"
   xmlns:sodipodi="http://sodipodi.sourceforge.net/DTD/sodipodi-0.dtd"
   xmlns:inkscape="http://www.inkscape.org/namespaces/inkscape"
   width="16"
   height="16"
   viewBox="0 0 16 16"
   id="svg2"
   version="1.1"
   inkscape:version="0.91 r13725"
   sodipodi:docname="camarao.svg">
  <defs
     id="defs4" />
  <sodipodi:namedview
     id="base"
     pagecolor="#ffffff"
     bordercolor="#666666"
     borderopacity="1.0"
     inkscape:pageopacity="0.0"
     inkscape:pageshadow="2"
     inkscape:zoom="26.321254"
     inkscape:cx="7.343685"
     inkscape:cy="7.0148633"
     inkscape:document-units="px"
     inkscape:current-layer="layer1"
     showgrid="false"
     units="px"
     inkscape:window-width="1440"
     inkscape:window-height="791"
     inkscape:window-x="0"
     inkscape:window-y="31"
     inkscape:window-maximized="1" />
  <metadata
     id="metadata7">
    <rdf:RDF>
      <cc:Work
         rdf:about="">
        <dc:format>image/svg+xml</dc:format>
        <dc:type
           rdf:resource="http://purl.org/dc/dcmitype/StillImage" />
        <dc:title></dc:title>
      </cc:Work>
    </rdf:RDF>
  </metadata>
  <g
     inkscape:label="Camada 1"
     inkscape:groupmode="layer"
     id="layer1"
     transform="translate(0,-1036.3622)">
    <g
       id="g4174"
       transform="matrix(0.01966781,0,0,0.02349352,-1.1054635,1029.7925)">
      <path
         d="M 207.44152,425.4357 A 168.57143,168.57143 0 0 1 389.70883,281.64067 168.57143,168.57143 0 0 1 542.72254,456.24074 168.57143,168.57143 0 0 1 376.25544,618.06498 168.57143,168.57143 0 0 1 206.05233,460.1749"
         sodipodi:open="true"
         sodipodi:end="3.0782547"
         sodipodi:start="3.2848667"
         sodipodi:ry="168.57143"
         sodipodi:rx="168.57143"
         sodipodi:cy="449.50507"
         sodipodi:cx="374.28574"
         sodipodi:type="arc"
         id="path4138"
         style="opacity:1;fill:#ff6600;fill-opacity:1" />
      <path
         style="opacity:1;fill:#ffffff;fill-opacity:1"
         id="path4140"
         sodipodi:type="arc"
         sodipodi:cx="430.10181"
         sodipodi:cy="399.50507"
         sodipodi:rx="67.041061"
         sodipodi:ry="67.142853"
         sodipodi:start="3.2848667"
         sodipodi:end="3.0782547"
         sodipodi:open="true"
         d="m 363.74766,389.91812 a 67.041061,67.142853 0 0 1 72.48793,-57.27429 67.041061,67.142853 0 0 1 60.85374,69.54409 67.041061,67.142853 0 0 1 -66.20417,64.45541 67.041061,67.142853 0 0 1 -67.68999,-62.88842" />
      <path
         d="m 420.51341,410.32315 a 21.280897,24.285709 0 0 1 23.0099,-20.71623 21.280897,24.285709 0 0 1 19.31686,25.15425 21.280897,24.285709 0 0 1 -21.01525,23.31365 21.280897,24.285709 0 0 1 -21.48688,-22.74687"
         sodipodi:open="true"
         sodipodi:end="3.0782547"
         sodipodi:start="3.2848667"
         sodipodi:ry="24.285709"
         sodipodi:rx="21.280897"
         sodipodi:cy="413.79077"
         sodipodi:cx="441.57626"
         sodipodi:type="arc"
         id="path4142"
         style="opacity:1;fill:#000000;fill-opacity:1" />
      <rect
         ry="0"
         y="458.07648"
         x="111.42857"
         height="154.28572"
         width="171.42857"
         id="rect4144"
         style="opacity:1;fill:#ff6600;fill-opacity:1" />
      <rect
         style="opacity:1;fill:#ff7f2a;fill-opacity:1"
         id="rect4146"
         width="171.42857"
         height="154.28572"
         x="60.000004"
         y="600.93365"
         ry="0" />
      <rect
         ry="0"
         y="740.93365"
         x="91.428574"
         height="154.28572"
         width="171.42857"
         id="rect4148"
         style="opacity:1;fill:#ff6600;fill-opacity:1" />
      <rect
         style="opacity:1;fill:#ff7f2a;fill-opacity:1"
         id="rect4150"
         width="171.42857"
         height="154.28572"
         x="197.14285"
         y="803.79077"
         ry="0" />
      <path
         inkscape:connector-curvature="0"
         d="m 228.29108,618.90473 c 9.81942,3.73868 18.68689,9.37307 28.31554,13.53503 9.88769,4.10664 20.35295,6.3411 30.36479,10.11372 8.29994,3.13668 16.7568,5.6478 25.26058,8.12122 8.79631,1.71662 17.24396,4.6801 25.91887,6.87072 8.26976,1.61225 16.50398,3.37025 24.87493,4.39013 7.63185,0.81097 15.31159,0.92703 22.97881,0.97311 7.13465,0.0424 14.26928,-0.0268 21.40389,-0.009 7.14932,-0.21835 14.22092,-1.60828 21.36377,-2.25618 7.19552,-0.82208 14.42669,-1.92259 21.55003,-3.29814 8.4015,-1.86808 16.86215,-3.68942 25.05938,-6.36476 7.56727,-3.07299 15.48489,-4.95358 22.98753,-8.17922 0,0 -32.81861,25.79563 -32.81861,25.79563 l 0,0 c -7.66306,2.8033 -15.50517,5.08443 -23.16803,7.89609 -8.38777,2.42507 -16.9174,4.42529 -25.49047,6.07152 -7.24681,1.23979 -14.51389,2.50014 -21.8465,3.09224 -7.18642,0.76469 -14.33628,2.16031 -21.5922,1.92109 -7.1463,0.0406 -14.29381,0.0285 -21.43974,-0.041 -7.73036,-0.1556 -15.47001,-0.39049 -23.13768,-1.47656 -8.44209,-1.22568 -16.84521,-2.84285 -25.13516,-4.85185 -8.64566,-2.39975 -17.25556,-4.85763 -25.99137,-6.90812 -8.57639,-2.36934 -16.91435,-5.36196 -25.24078,-8.50334 -10.13798,-3.56706 -20.66948,-5.95285 -30.49523,-10.3995 -9.64121,-4.53803 -18.86681,-9.96 -29.06049,-13.2414 0,0 35.33814,-23.25124 35.33814,-23.25124 z"
         id="path4152"
         style="opacity:1;fill:#ff6600;fill-opacity:1" />
      <path
         inkscape:connector-curvature="0"
         d="m 235.5207,718.5708 c 8.09679,-2.5375 16.63103,-3.07849 25.04384,-3.64567 9.36401,-0.59424 18.75023,-0.55383 28.12809,-0.59029 7.86348,-0.0439 15.72696,-0.0202 23.59053,-0.0403 7.21494,0.0168 14.42991,0.0157 21.64486,0.0177 8.54603,0.52376 16.7474,-0.47824 24.98854,-2.71377 9.06197,-2.74395 18.36402,-4.59743 27.79392,-5.40159 8.75643,-0.52027 17.57147,-0.78956 26.30873,0.0432 9.7821,0.88426 19.35126,3.24123 28.91889,5.35588 8.90023,1.37604 16.69278,6.16882 25.15509,9.01927 7.40994,2.36302 14.2858,5.42591 20.73849,9.78287 6.67047,5.03949 12.88752,10.66048 19.65096,15.57674 4.21,2.81384 8.91259,4.66314 13.4735,6.79616 0,0 -34.96513,23.14015 -34.96513,23.14015 l 0,0 c -4.77946,-2.22857 -9.63559,-4.38066 -13.88181,-7.56365 -6.54845,-5.0635 -12.85098,-10.45143 -19.55763,-15.30659 -6.33705,-3.96806 -13.18301,-6.52751 -20.22501,-8.97778 -8.12776,-3.18535 -15.89053,-7.48298 -24.66166,-8.6925 -9.39811,-2.09556 -18.8371,-4.29111 -28.47576,-4.88933 -8.70042,-0.31095 -17.42035,-0.12763 -26.09321,0.67633 -9.20987,1.14243 -18.25533,3.1054 -27.18469,5.64198 -8.58167,1.84662 -17.15907,2.64097 -25.94118,2.18378 -7.2231,-2.1e-4 -14.44612,-0.005 -21.66923,-0.007 -7.79224,-0.0434 -15.58446,-0.0619 -23.37674,-0.0913 -9.28652,0.0214 -18.5817,0.11438 -27.84874,0.77139 -8.45424,0.74838 -17.03624,1.69354 -24.8927,5.13005 0,0 33.33805,-26.21575 33.33805,-26.21575 z"
         id="path4154"
         style="opacity:1;fill:#ff6600;fill-opacity:1" />
      <path
         inkscape:connector-curvature="0"
         d="m 364.68919,842.14907 c 8.52316,-3.5197 17.63513,-5.34608 26.72539,-6.67219 8.62944,-1.40379 17.09424,-3.62396 25.7018,-5.10992 1.16276,-0.23161 2.32553,-0.46323 3.4883,-0.69484 0,0 -33.52849,25.32178 -33.52849,25.32178 l 0,0 c -1.11056,0.19436 -2.22112,0.38871 -3.33169,0.58306 -8.54692,1.75143 -17.07968,3.55875 -25.69536,4.95611 -9.28108,1.60723 -18.22423,4.30121 -27.2086,7.07303 0,0 33.84865,-25.45703 33.84865,-25.45703 z"
         id="path4156"
         style="opacity:1;fill:#ff6600;fill-opacity:1" />
      <path
         inkscape:connector-curvature="0"
         d="m 336.11777,807.86336 c 8.61075,-2.39564 17.44485,-3.51059 26.3312,-4.18993 11.36228,-1.19888 22.64056,-2.86514 33.93291,-4.58309 0,0 -33.27366,24.92988 -33.27366,24.92988 l 0,0 c -11.34918,1.63205 -22.70532,3.1875 -34.10609,4.42354 -9.03785,0.96553 -17.92178,2.63753 -26.73302,4.87662 0,0 33.84866,-25.45702 33.84866,-25.45702 z"
         id="path4158"
         style="opacity:1;fill:#ff6600;fill-opacity:1" />
      <path
         inkscape:connector-curvature="0"
         d="m 295.5207,789.99938 c 9.7052,-2.88113 19.29732,-6.11806 29.05333,-8.8646 10.84679,-2.15147 21.62295,-4.58872 32.4064,-7.00901 0,0 -33.19986,25.26843 -33.19986,25.26843 l 0,0 c -10.66329,2.43173 -21.46154,4.24412 -32.03917,7.05566 -9.92002,3.02392 -19.93207,5.9029 -29.55875,9.76526 0,0 33.33805,-26.21574 33.33805,-26.21574 z"
         id="path4160"
         style="opacity:1;fill:#ff6600;fill-opacity:1" />
      <path
         inkscape:connector-curvature="0"
         d="m 253.59916,770.78442 c 12.20473,-0.61871 24.085,-3.6324 36.1776,-5.29094 11.83973,-1.59617 23.78541,-2.28591 35.72427,-2.48142 15.2274,0.4568 30.38591,-0.94449 45.51438,-2.48468 2.83405,-0.41617 5.66811,-0.83235 8.50217,-1.24853 0,0 -32.65906,24.41253 -32.65906,24.41253 l 0,0 c -2.83964,0.35899 -5.67929,0.71797 -8.51893,1.07696 -15.44165,1.51234 -30.9033,2.83724 -46.43514,2.77192 -11.70691,0.34985 -23.42335,0.8501 -35.02337,2.59233 -12.38898,1.93148 -24.6585,4.56478 -37.12412,5.98102 0,0 33.8422,-25.32919 33.8422,-25.32919 z"
         id="path4162"
         style="opacity:1;fill:#ff6600;fill-opacity:1" />
      <path
         inkscape:connector-curvature="0"
         d="m 538.87732,402.7457 c 6.82723,0.38819 13.86332,-0.22219 20.60542,1.21179 2.06906,0.44007 4.04868,1.22753 6.07302,1.84129 12.0132,4.47056 24.42814,7.31809 36.82671,10.4254 8.11928,1.67716 15.97465,3.10644 23.4669,6.7365 9.05594,3.85728 17.53348,8.69225 25.72131,14.1262 9.40183,7.42964 19.3505,13.93822 30.38737,18.6216 9.8956,4.3945 19.87893,8.56839 29.82755,12.83447 9.01781,3.95632 18.9103,4.94621 28.52706,6.5952 11.73488,1.04 22.78009,5.23792 33.99655,8.51617 9.25557,2.60274 18.88616,3.40068 28.29426,5.21336 4.98024,0.95956 9.88014,2.29723 14.82163,3.43968 11.23582,2.2304 22.39804,4.8665 33.72874,6.58938 5.0379,1.53105 12.29044,-0.77707 16.67619,2.82613 0.74193,0.60954 1.13007,1.55272 1.6951,2.32909 1.22989,4.37997 -0.77128,8.35877 -4.66914,10.67744 -36.25959,21.5693 -25.43529,16.76768 -42.15166,23.94863 -4.72332,2.63544 -9.98687,3.33815 -15.11929,4.57583 -3.29958,0.79569 -6.51534,1.91333 -9.81056,2.72689 -14.69044,3.36794 -29.83922,3.50936 -44.83194,3.72195 -19.36715,0.2437 -38.73598,0.28751 -58.10369,0.46957 -11.86216,0.0967 -23.72443,0.12286 -35.58689,0.13411 -9.21068,-0.52434 -18.29505,0.98549 -27.41706,1.9808 -8.13998,0.42802 -16.20263,0.62348 -24.23596,2.01982 -7.38653,0.90815 -14.64035,2.55822 -22.00754,3.62405 -8.24391,0.85871 -16.54377,0.91643 -24.82358,1.03233 -8.25592,1.86878 -16.29998,4.45912 -24.54253,6.36764 -8.18097,1.21785 -16.35278,2.56707 -24.56036,3.6427 -8.70461,0.72311 -17.3257,1.26703 -25.84406,3.31197 -8.39151,2.90377 -16.76562,5.86924 -25.42254,7.89003 -7.72805,0.93158 -14.32967,4.01356 -21.21286,7.36069 0,0 32.70336,-26.05241 32.70336,-26.05241 l 0,0 c 6.97041,-3.23696 14.19894,-5.4126 21.77709,-6.7455 8.5748,-2.28814 16.85578,-5.5002 25.44969,-7.71688 8.62298,-1.57899 17.34471,-2.00756 26.03181,-3.10718 8.11574,-1.25361 16.29346,-2.1904 24.31378,-3.96577 8.31667,-2.12861 16.55097,-4.94391 25.15241,-5.64839 8.19786,-0.11552 16.42689,-0.29281 24.54528,-1.54666 7.35258,-1.19306 14.65213,-2.69826 22.04527,-3.64239 8.05336,-1.0413 16.18681,-0.84056 24.2522,-1.80405 9.12957,-0.95985 18.24454,-1.91035 27.4453,-1.44418 11.6962,0.0319 23.39198,0.0984 35.08758,0.2269 19.19995,0.20732 38.40602,0.26904 57.60197,-0.24756 15.13424,-0.62684 30.4197,-1.15913 45.13348,-5.11862 8.41126,-2.3378 17.04787,-4.11749 24.83007,-8.2396 14.7843,-7.91109 -1.99109,1.02004 -29.91943,17.51624 -0.88473,0.52257 1.87499,-0.84421 2.7855,-1.32046 4.68572,-2.45091 0.3327,-0.13854 3.63229,-2.66587 0.26035,-0.19941 0.60231,-0.25965 0.90347,-0.38947 -1.22248,-2.05666 -13.37377,-1.6252 -16.0203,-2.74492 -11.14066,-2.13152 -22.19358,-4.72837 -33.26,-7.20591 -14.41143,-3.33713 -29.07724,-5.18335 -43.43316,-8.73092 -11.19867,-3.32917 -22.39792,-6.74669 -34.08175,-7.8983 -9.82538,-1.80723 -19.90042,-2.96515 -28.97672,-7.45161 -9.94282,-4.30021 -19.94982,-8.45453 -29.8265,-12.90445 -10.99404,-5.16327 -20.8729,-11.96306 -30.55873,-19.26941 -8.24279,-5.18911 -16.99023,-9.3342 -25.89636,-13.25937 -7.3203,-3.0307 -15.0812,-4.28135 -22.69923,-6.38095 -12.33758,-3.18503 -24.54203,-6.68519 -36.69522,-10.5005 -8.91796,-1.76187 -17.8898,-2.12167 -26.96831,-1.58522 0,0 34.33701,-24.9473 34.33701,-24.9473 z"
         id="path4170"
         style="opacity:1;fill:#ff6600;fill-opacity:1" />
      <path
         inkscape:connector-curvature="0"
         id="path4172"
         d="m 516.91688,543.20228 c 20.08854,-41.42081 23.62766,-52.78103 26.83131,-86.12579 1.09458,-11.39286 3.24558,-20.71429 4.78,-20.71429 1.53441,0 10.59792,2.02328 20.14112,4.49617 19.08039,4.94423 39.85028,14.6873 58.36242,27.37756 17.61726,12.07682 54.98995,27.31827 78.70219,32.09657 48.56239,9.78592 92.42668,19.4216 96.40894,21.17819 2.35714,1.03975 -31.71429,2.64969 -75.71429,3.57767 -77.31248,1.63054 -107.49522,4.15272 -152.85714,12.77332 -30.29904,5.75804 -58.12935,8.3815 -56.65455,5.3406 z"
         style="opacity:1;fill:#ff6600;fill-opacity:1" />
    </g>
  </g>
</svg>
