<?xml version="1.0" encoding="UTF-8" standalone="no"?>
<!-- Created with Inkscape (http://www.inkscape.org/) -->

<svg
   xmlns:dc="http://purl.org/dc/elements/1.1/"
   xmlns:cc="http://creativecommons.org/ns#"
   xmlns:rdf="http://www.w3.org/1999/02/22-rdf-syntax-ns#"
   xmlns:svg="http://www.w3.org/2000/svg"
   xmlns="http://www.w3.org/2000/svg"
   xmlns:sodipodi="http://sodipodi.sourceforge.net/DTD/sodipodi-0.dtd"
   xmlns:inkscape="http://www.inkscape.org/namespaces/inkscape"
   width="16"
   height="32"
   id="svg3194"
   version="1.1"
   inkscape:version="0.91 r13725"
   sodipodi:docname="peixe0.svg">
  <defs
     id="defs3196" />
  <sodipodi:namedview
     id="base"
     pagecolor="#ffffff"
     bordercolor="#666666"
     borderopacity="1.0"
     inkscape:pageopacity="0.0"
     inkscape:pageshadow="2"
     inkscape:zoom="16"
     inkscape:cx="12.159353"
     inkscape:cy="14.896495"
     inkscape:document-units="px"
     inkscape:current-layer="layer1"
     showgrid="false"
     inkscape:window-width="1440"
     inkscape:window-height="791"
     inkscape:window-x="0"
     inkscape:window-y="31"
     inkscape:window-maximized="1" />
  <metadata
     id="metadata3199">
    <rdf:RDF>
      <cc:Work
         rdf:about="">
        <dc:format>image/svg+xml</dc:format>
        <dc:type
           rdf:resource="http://purl.org/dc/dcmitype/StillImage" />
        <dc:title></dc:title>
      </cc:Work>
    </rdf:RDF>
  </metadata>
  <g
     inkscape:label="Camada 1"
     inkscape:groupmode="layer"
     id="layer1"
     transform="translate(0,-1020.3622)">
    <g
       id="g3539"
       transform="matrix(0.62762231,0,0,1.0724795,-1.3845622,-73.997867)">
      <path
         sodipodi:open="true"
         sodipodi:end="3.0782606"
         sodipodi:start="3.2848589"
         d="m 7.8416816,1026.0331 a 7.6811624,6.537333 0 0 1 8.3052064,-5.5766 7.6811624,6.537333 0 0 1 6.97229,6.7711 7.6811624,6.537333 0 0 1 -7.585295,6.2757 7.6811624,6.537333 0 0 1 -7.7554962,-6.1231"
         sodipodi:ry="6.537333"
         sodipodi:rx="7.6811624"
         sodipodi:cy="1026.9664"
         sodipodi:cx="15.44415"
         id="path3202"
         style="fill:#000080;fill-opacity:1;stroke:none"
         sodipodi:type="arc" />
      <path
         id="path3204"
         transform="translate(0,1020.3622)"
         d="m 15.027344,8.1425781 a 7.4978378,4.4286277 77.135748 0 0 -3.71875,5.1152339 l 0.02734,1.488282 a 7.4978378,4.4286277 77.135748 0 0 2.310546,6.164062 l -1.669922,3.013672 -9.820312,5.890625 8.785156,-0.828125 9.169922,0.917969 -1.591797,-5.294922 1.191407,-3.578125 a 7.4978378,4.4286277 77.135748 0 0 0.841796,-4 A 7.4978378,4.4286277 77.135748 0 0 16.037105,8.3828125 7.4978378,4.4286277 77.135748 0 0 15.02734,8.1425781 Z"
         style="fill:#000080;fill-opacity:1;stroke:none"
         inkscape:connector-curvature="0" />
      <path
         inkscape:transform-center-x="1.9926231"
         sodipodi:type="arc"
         style="fill:#000080;fill-opacity:1;stroke:none"
         id="path3210"
         sodipodi:cx="1148.0273"
         sodipodi:cy="1320.1798"
         sodipodi:rx="1.3156024"
         sodipodi:ry="5.5070324"
         d="m 1146.7252,1319.3935 a 1.3156024,5.5070324 0 0 1 1.4225,-4.6976 1.3156024,5.5070324 0 0 1 1.1942,5.704 1.3156024,5.5070324 0 0 1 -1.2992,5.2866 1.3156024,5.5070324 0 0 1 -1.3283,-5.1582"
         transform="matrix(0.96459867,0.26372222,-0.83231172,0.55430786,0,0)"
         sodipodi:start="3.2848589"
         sodipodi:end="3.0782606"
         sodipodi:open="true" />
      <path
         sodipodi:open="true"
         sodipodi:end="3.0782606"
         sodipodi:start="3.2848589"
         transform="matrix(-0.96459867,0.26372222,0.83231172,0.55430786,0,0)"
         d="m 1123.979,1330.8518 a 1.3156024,5.5070324 0 0 1 1.4225,-4.6977 1.3156024,5.5070324 0 0 1 1.1942,5.704 1.3156024,5.5070324 0 0 1 -1.2992,5.2866 1.3156024,5.5070324 0 0 1 -1.3283,-5.1581"
         sodipodi:ry="5.5070324"
         sodipodi:rx="1.3156024"
         sodipodi:cy="1331.6381"
         sodipodi:cx="1125.2811"
         id="path3212"
         style="fill:#000080;fill-opacity:1;stroke:none"
         sodipodi:type="arc"
         inkscape:transform-center-x="-1.9926226" />
      <g
         transform="matrix(2.1245876,0,0,1.2442557,-22.780998,-252.56183)"
         id="g3003">
        <path
           sodipodi:open="true"
           sodipodi:end="3.0782606"
           sodipodi:start="3.2848589"
           transform="matrix(-0.32385122,0,0,0.39987339,21.934831,1021.2322)"
           d="m 14.127551,10.818805 a 2.5290985,3.7936478 0 0 1 2.734572,-3.2360929 2.5290985,3.7936478 0 0 1 2.295695,3.9293189 2.5290985,3.7936478 0 0 1 -2.497533,3.641808 2.5290985,3.7936478 0 0 1 -2.553574,-3.55329"
           sodipodi:ry="3.7936478"
           sodipodi:rx="2.5290985"
           sodipodi:cy="11.36045"
           sodipodi:cx="16.630739"
           id="path3221"
           style="fill:#ffffff;fill-opacity:1;stroke:none"
           sodipodi:type="arc" />
        <path
           sodipodi:type="arc"
           style="fill:#000000;fill-opacity:1;stroke:none"
           id="path3223"
           sodipodi:cx="16.630739"
           sodipodi:cy="11.36045"
           sodipodi:rx="2.5290985"
           sodipodi:ry="3.7936478"
           d="m 14.127551,10.818805 a 2.5290985,3.7936478 0 0 1 2.734572,-3.2360929 2.5290985,3.7936478 0 0 1 2.295695,3.9293189 2.5290985,3.7936478 0 0 1 -2.497533,3.641808 2.5290985,3.7936478 0 0 1 -2.553574,-3.55329"
           transform="matrix(-0.17924326,0,0,0.23085515,19.777843,1022.8784)"
           sodipodi:start="3.2848589"
           sodipodi:end="3.0782606"
           sodipodi:open="true" />
      </g>
      <g
         id="g3007"
         transform="matrix(-2.1245876,0,0,1.2442557,53.659445,-252.56183)">
        <path
           sodipodi:type="arc"
           style="fill:#ffffff;fill-opacity:1;stroke:none"
           id="path3009"
           sodipodi:cx="16.630739"
           sodipodi:cy="11.36045"
           sodipodi:rx="2.5290985"
           sodipodi:ry="3.7936478"
           d="m 14.127551,10.818805 a 2.5290985,3.7936478 0 0 1 2.734572,-3.2360929 2.5290985,3.7936478 0 0 1 2.295695,3.9293189 2.5290985,3.7936478 0 0 1 -2.497533,3.641808 2.5290985,3.7936478 0 0 1 -2.553574,-3.55329"
           transform="matrix(-0.32385122,0,0,0.39987339,21.934831,1021.2322)"
           sodipodi:start="3.2848589"
           sodipodi:end="3.0782606"
           sodipodi:open="true" />
        <path
           sodipodi:open="true"
           sodipodi:end="3.0782606"
           sodipodi:start="3.2848589"
           transform="matrix(-0.17924326,0,0,0.23085515,19.777843,1022.8784)"
           d="m 14.127551,10.818805 a 2.5290985,3.7936478 0 0 1 2.734572,-3.2360929 2.5290985,3.7936478 0 0 1 2.295695,3.9293189 2.5290985,3.7936478 0 0 1 -2.497533,3.641808 2.5290985,3.7936478 0 0 1 -2.553574,-3.55329"
           sodipodi:ry="3.7936478"
           sodipodi:rx="2.5290985"
           sodipodi:cy="11.36045"
           sodipodi:cx="16.630739"
           id="path3011"
           style="fill:#000000;fill-opacity:1;stroke:none"
           sodipodi:type="arc" />
      </g>
    </g>
  </g>
</svg>
