<?xml version="1.0" encoding="UTF-8" standalone="no"?>
<!-- Created with Inkscape (http://www.inkscape.org/) -->

<svg
   xmlns:dc="http://purl.org/dc/elements/1.1/"
   xmlns:cc="http://creativecommons.org/ns#"
   xmlns:rdf="http://www.w3.org/1999/02/22-rdf-syntax-ns#"
   xmlns:svg="http://www.w3.org/2000/svg"
   xmlns="http://www.w3.org/2000/svg"
   xmlns:sodipodi="http://sodipodi.sourceforge.net/DTD/sodipodi-0.dtd"
   xmlns:inkscape="http://www.inkscape.org/namespaces/inkscape"
   width="16"
   height="32"
   id="svg3194"
   version="1.1"
   inkscape:version="0.91 r13725"
   sodipodi:docname="peixe1.svg">
  <defs
     id="defs3196" />
  <sodipodi:namedview
     id="base"
     pagecolor="#ffffff"
     bordercolor="#666666"
     borderopacity="1.0"
     inkscape:pageopacity="0.0"
     inkscape:pageshadow="2"
     inkscape:zoom="16"
     inkscape:cx="12.159353"
     inkscape:cy="14.896495"
     inkscape:document-units="px"
     inkscape:current-layer="layer1"
     showgrid="false"
     inkscape:window-width="1440"
     inkscape:window-height="791"
     inkscape:window-x="0"
     inkscape:window-y="31"
     inkscape:window-maximized="1" />
  <metadata
     id="metadata3199">
    <rdf:RDF>
      <cc:Work
         rdf:about="">
        <dc:format>image/svg+xml</dc:format>
        <dc:type
           rdf:resource="http://purl.org/dc/dcmitype/StillImage" />
        <dc:title></dc:title>
      </cc:Work>
    </rdf:RDF>
  </metadata>
  <g
     inkscape:label="Camada 1"
     inkscape:groupmode="layer"
     id="layer1"
     transform="translate(0,-1020.3622)">
    <g
       id="g3468"
       transform="matrix(0.6716854,0,0,1.0712194,-2.4305157,-72.674291)">
      <path
         sodipodi:open="true"
         sodipodi:end="3.0782606"
         sodipodi:start="3.2848589"
         d="m 7.8416816,1026.0331 a 7.6811624,6.537333 0 0 1 8.3052064,-5.5766 7.6811624,6.537333 0 0 1 6.97229,6.7711 7.6811624,6.537333 0 0 1 -7.585295,6.2757 7.6811624,6.537333 0 0 1 -7.7554962,-6.1231"
         sodipodi:ry="6.537333"
         sodipodi:rx="7.6811624"
         sodipodi:cy="1026.9664"
         sodipodi:cx="15.44415"
         id="path3202"
         style="fill:#000080;fill-opacity:1;stroke:none"
         sodipodi:type="arc" />
      <path
         sodipodi:nodetypes="ccccccccccccc"
         inkscape:connector-curvature="0"
         id="path3204"
         transform="translate(0,1020.3622)"
         d="m 15.027344,8.1425781 c -2.040203,-0.1320702 -3.561253,1.9601729 -3.71875,5.1152339 l 0.02734,1.488282 c 0.189777,2.303508 1.045387,4.5861 2.310546,6.164062 l 0.142578,3.388672 -7.070312,5.515625 10.035156,-0.890625 7.169922,0.980469 -4.529297,-5.419922 0.316407,-3.453125 c 0.57214,-1.047843 0.867301,-2.450371 0.841796,-4 C 20.48499,13.189646 18.500094,9.388119 16.037105,8.3828125 15.698362,8.2445284 15.359745,8.1639675 15.02734,8.1425781 Z"
         style="fill:#000080;fill-opacity:1;stroke:none" />
      <path
         inkscape:transform-center-y="-0.77118916"
         inkscape:transform-center-x="1.9925486"
         sodipodi:type="arc"
         style="fill:#000080;fill-opacity:1;stroke:none"
         id="path3210"
         sodipodi:cx="1321.7756"
         sodipodi:cy="1136.1447"
         sodipodi:rx="1.5208075"
         sodipodi:ry="4.758564"
         d="m 1320.2704,1135.4652 a 1.5208075,4.758564 0 0 1 1.6444,-4.0592 1.5208075,4.758564 0 0 1 1.3804,4.9288 1.5208075,4.758564 0 0 1 -1.5018,4.5681 1.5208075,4.758564 0 0 1 -1.5355,-4.4571"
         transform="matrix(0.83444374,0.55109314,-0.96322489,0.26869651,0,0)"
         sodipodi:start="3.2848589"
         sodipodi:end="3.0782606"
         sodipodi:open="true" />
      <path
         inkscape:transform-center-y="-0.66815323"
         sodipodi:open="true"
         sodipodi:end="3.0782606"
         sodipodi:start="3.2848589"
         transform="matrix(-0.85418023,0.51997705,0.94944684,0.31392787,0,0)"
         d="m 1278.0088,1174.5204 a 1.4856682,4.8276191 0 0 1 1.6064,-4.1181 1.4856682,4.8276191 0 0 1 1.3485,5.0003 1.4856682,4.8276191 0 0 1 -1.4671,4.6344 1.4856682,4.8276191 0 0 1 -1.5,-4.5217"
         sodipodi:ry="4.8276191"
         sodipodi:rx="1.4856682"
         sodipodi:cy="1175.2097"
         sodipodi:cx="1279.4792"
         id="path3212"
         style="fill:#000080;fill-opacity:1;stroke:none"
         sodipodi:type="arc"
         inkscape:transform-center-x="-1.9926102" />
      <g
         transform="matrix(2.1245876,0,0,1.2442557,-22.780998,-252.56183)"
         id="g3003">
        <path
           sodipodi:open="true"
           sodipodi:end="3.0782606"
           sodipodi:start="3.2848589"
           transform="matrix(-0.32385122,0,0,0.39987339,21.934831,1021.2322)"
           d="m 14.127551,10.818805 a 2.5290985,3.7936478 0 0 1 2.734572,-3.2360929 2.5290985,3.7936478 0 0 1 2.295695,3.9293189 2.5290985,3.7936478 0 0 1 -2.497533,3.641808 2.5290985,3.7936478 0 0 1 -2.553574,-3.55329"
           sodipodi:ry="3.7936478"
           sodipodi:rx="2.5290985"
           sodipodi:cy="11.36045"
           sodipodi:cx="16.630739"
           id="path3221"
           style="fill:#ffffff;fill-opacity:1;stroke:none"
           sodipodi:type="arc" />
        <path
           sodipodi:type="arc"
           style="fill:#000000;fill-opacity:1;stroke:none"
           id="path3223"
           sodipodi:cx="16.630739"
           sodipodi:cy="11.36045"
           sodipodi:rx="2.5290985"
           sodipodi:ry="3.7936478"
           d="m 14.127551,10.818805 a 2.5290985,3.7936478 0 0 1 2.734572,-3.2360929 2.5290985,3.7936478 0 0 1 2.295695,3.9293189 2.5290985,3.7936478 0 0 1 -2.497533,3.641808 2.5290985,3.7936478 0 0 1 -2.553574,-3.55329"
           transform="matrix(-0.17924326,0,0,0.23085515,19.777843,1022.8784)"
           sodipodi:start="3.2848589"
           sodipodi:end="3.0782606"
           sodipodi:open="true" />
      </g>
      <g
         id="g3007"
         transform="matrix(-2.1245876,0,0,1.2442557,53.659445,-252.56183)">
        <path
           sodipodi:type="arc"
           style="fill:#ffffff;fill-opacity:1;stroke:none"
           id="path3009"
           sodipodi:cx="16.630739"
           sodipodi:cy="11.36045"
           sodipodi:rx="2.5290985"
           sodipodi:ry="3.7936478"
           d="m 14.127551,10.818805 a 2.5290985,3.7936478 0 0 1 2.734572,-3.2360929 2.5290985,3.7936478 0 0 1 2.295695,3.9293189 2.5290985,3.7936478 0 0 1 -2.497533,3.641808 2.5290985,3.7936478 0 0 1 -2.553574,-3.55329"
           transform="matrix(-0.32385122,0,0,0.39987339,21.934831,1021.2322)"
           sodipodi:start="3.2848589"
           sodipodi:end="3.0782606"
           sodipodi:open="true" />
        <path
           sodipodi:open="true"
           sodipodi:end="3.0782606"
           sodipodi:start="3.2848589"
           transform="matrix(-0.17924326,0,0,0.23085515,19.777843,1022.8784)"
           d="m 14.127551,10.818805 a 2.5290985,3.7936478 0 0 1 2.734572,-3.2360929 2.5290985,3.7936478 0 0 1 2.295695,3.9293189 2.5290985,3.7936478 0 0 1 -2.497533,3.641808 2.5290985,3.7936478 0 0 1 -2.553574,-3.55329"
           sodipodi:ry="3.7936478"
           sodipodi:rx="2.5290985"
           sodipodi:cy="11.36045"
           sodipodi:cx="16.630739"
           id="path3011"
           style="fill:#000000;fill-opacity:1;stroke:none"
           sodipodi:type="arc" />
      </g>
    </g>
  </g>
</svg>
