<?xml version="1.0" encoding="UTF-8" standalone="no"?>
<!-- Created with Inkscape (http://www.inkscape.org/) -->

<svg
   xmlns:dc="http://purl.org/dc/elements/1.1/"
   xmlns:cc="http://creativecommons.org/ns#"
   xmlns:rdf="http://www.w3.org/1999/02/22-rdf-syntax-ns#"
   xmlns:svg="http://www.w3.org/2000/svg"
   xmlns="http://www.w3.org/2000/svg"
   xmlns:sodipodi="http://sodipodi.sourceforge.net/DTD/sodipodi-0.dtd"
   xmlns:inkscape="http://www.inkscape.org/namespaces/inkscape"
   width="16"
   height="32"
   id="svg3194"
   version="1.1"
   inkscape:version="0.91 r13725"
   sodipodi:docname="peixe2.svg">
  <defs
     id="defs3196" />
  <sodipodi:namedview
     id="base"
     pagecolor="#ffffff"
     bordercolor="#666666"
     borderopacity="1.0"
     inkscape:pageopacity="0.0"
     inkscape:pageshadow="2"
     inkscape:zoom="16"
     inkscape:cx="12.159353"
     inkscape:cy="14.896495"
     inkscape:document-units="px"
     inkscape:current-layer="layer1"
     showgrid="false"
     inkscape:window-width="1440"
     inkscape:window-height="791"
     inkscape:window-x="0"
     inkscape:window-y="31"
     inkscape:window-maximized="1" />
  <metadata
     id="metadata3199">
    <rdf:RDF>
      <cc:Work
         rdf:about="">
        <dc:format>image/svg+xml</dc:format>
        <dc:type
           rdf:resource="http://purl.org/dc/dcmitype/StillImage" />
        <dc:title></dc:title>
      </cc:Work>
    </rdf:RDF>
  </metadata>
  <g
     inkscape:label="Camada 1"
     inkscape:groupmode="layer"
     id="layer1"
     transform="translate(0,-1020.3622)">
    <g
       id="g3397"
       transform="matrix(0.65553,0,0,1.026159,-2.4311651,-26.693405)">
      <path
         sodipodi:open="true"
         sodipodi:end="3.0782606"
         sodipodi:start="3.2848589"
         d="m 7.8416816,1026.0331 a 7.6811624,6.537333 0 0 1 8.3052064,-5.5766 7.6811624,6.537333 0 0 1 6.97229,6.7711 7.6811624,6.537333 0 0 1 -7.585295,6.2757 7.6811624,6.537333 0 0 1 -7.7554962,-6.1231"
         sodipodi:ry="6.537333"
         sodipodi:rx="7.6811624"
         sodipodi:cy="1026.9664"
         sodipodi:cx="15.44415"
         id="path3202"
         style="fill:#000080;fill-opacity:1;stroke:none"
         sodipodi:type="arc" />
      <path
         sodipodi:nodetypes="ccccccccccccc"
         inkscape:connector-curvature="0"
         id="path3204"
         transform="translate(0,1020.3622)"
         d="m 15.027344,8.1425781 c -2.040203,-0.1320702 -3.561253,1.9601729 -3.71875,5.1152339 l 0.02734,1.488282 c 0.189777,2.303508 1.482887,4.3361 2.748046,5.914062 l 2.330078,5.013672 -2.820312,5.453125 6.160156,-2.390625 8.482422,1.542969 -7.591797,-6.544922 -0.433593,-2.953125 c 0.0096,-1.610343 0.367301,-2.200371 0.341796,-3.75 C 20.48499,13.189646 18.500094,9.388119 16.037105,8.3828125 15.698362,8.2445284 15.359745,8.1639675 15.027344,8.1425781 Z"
         style="fill:#000080;fill-opacity:1;stroke:none" />
      <path
         inkscape:transform-center-y="0.18837468"
         inkscape:transform-center-x="1.9925528"
         sodipodi:type="arc"
         style="fill:#000080;fill-opacity:1;stroke:none"
         id="path3210"
         sodipodi:cx="1125.9565"
         sodipodi:cy="1381.7179"
         sodipodi:rx="1.2891642"
         sodipodi:ry="5.7585759"
         d="m 1124.6806,1380.8957 a 1.2891642,5.7585759 0 0 1 1.3939,-4.9122 1.2891642,5.7585759 0 0 1 1.1702,5.9645 1.2891642,5.7585759 0 0 1 -1.2731,5.5281 1.2891642,5.7585759 0 0 1 -1.3016,-5.3937"
         transform="matrix(0.98438066,0.17605315,-0.79595499,0.60535581,0,0)"
         sodipodi:start="3.2848589"
         sodipodi:end="3.0782606"
         sodipodi:open="true" />
      <path
         inkscape:transform-center-y="-0.02224245"
         sodipodi:open="true"
         sodipodi:end="3.0782606"
         sodipodi:start="3.2848589"
         transform="matrix(-0.96180575,0.27373289,0.83661014,0.54779875,0,0)"
         d="m 1127.5021,1324.312 a 1.3194227,5.4787378 0 0 1 1.4266,-4.6735 1.3194227,5.4787378 0 0 1 1.1977,5.6746 1.3194227,5.4787378 0 0 1 -1.303,5.2595 1.3194227,5.4787378 0 0 1 -1.3322,-5.1316"
         sodipodi:ry="5.4787378"
         sodipodi:rx="1.3194227"
         sodipodi:cy="1325.0942"
         sodipodi:cx="1128.808"
         id="path3212"
         style="fill:#000080;fill-opacity:1;stroke:none"
         sodipodi:type="arc"
         inkscape:transform-center-x="-1.9926037" />
      <g
         transform="matrix(2.1245876,0,0,1.2442557,-22.780998,-252.56183)"
         id="g3003">
        <path
           sodipodi:open="true"
           sodipodi:end="3.0782606"
           sodipodi:start="3.2848589"
           transform="matrix(-0.32385122,0,0,0.39987339,21.934831,1021.2322)"
           d="m 14.127551,10.818805 a 2.5290985,3.7936478 0 0 1 2.734572,-3.2360929 2.5290985,3.7936478 0 0 1 2.295695,3.9293189 2.5290985,3.7936478 0 0 1 -2.497533,3.641808 2.5290985,3.7936478 0 0 1 -2.553574,-3.55329"
           sodipodi:ry="3.7936478"
           sodipodi:rx="2.5290985"
           sodipodi:cy="11.36045"
           sodipodi:cx="16.630739"
           id="path3221"
           style="fill:#ffffff;fill-opacity:1;stroke:none"
           sodipodi:type="arc" />
        <path
           sodipodi:type="arc"
           style="fill:#000000;fill-opacity:1;stroke:none"
           id="path3223"
           sodipodi:cx="16.630739"
           sodipodi:cy="11.36045"
           sodipodi:rx="2.5290985"
           sodipodi:ry="3.7936478"
           d="m 14.127551,10.818805 a 2.5290985,3.7936478 0 0 1 2.734572,-3.2360929 2.5290985,3.7936478 0 0 1 2.295695,3.9293189 2.5290985,3.7936478 0 0 1 -2.497533,3.641808 2.5290985,3.7936478 0 0 1 -2.553574,-3.55329"
           transform="matrix(-0.17924326,0,0,0.23085515,19.777843,1022.8784)"
           sodipodi:start="3.2848589"
           sodipodi:end="3.0782606"
           sodipodi:open="true" />
      </g>
      <g
         id="g3007"
         transform="matrix(-2.1245876,0,0,1.2442557,53.659445,-252.56183)">
        <path
           sodipodi:type="arc"
           style="fill:#ffffff;fill-opacity:1;stroke:none"
           id="path3009"
           sodipodi:cx="16.630739"
           sodipodi:cy="11.36045"
           sodipodi:rx="2.5290985"
           sodipodi:ry="3.7936478"
           d="m 14.127551,10.818805 a 2.5290985,3.7936478 0 0 1 2.734572,-3.2360929 2.5290985,3.7936478 0 0 1 2.295695,3.9293189 2.5290985,3.7936478 0 0 1 -2.497533,3.641808 2.5290985,3.7936478 0 0 1 -2.553574,-3.55329"
           transform="matrix(-0.32385122,0,0,0.39987339,21.934831,1021.2322)"
           sodipodi:start="3.2848589"
           sodipodi:end="3.0782606"
           sodipodi:open="true" />
        <path
           sodipodi:open="true"
           sodipodi:end="3.0782606"
           sodipodi:start="3.2848589"
           transform="matrix(-0.17924326,0,0,0.23085515,19.777843,1022.8784)"
           d="m 14.127551,10.818805 a 2.5290985,3.7936478 0 0 1 2.734572,-3.2360929 2.5290985,3.7936478 0 0 1 2.295695,3.9293189 2.5290985,3.7936478 0 0 1 -2.497533,3.641808 2.5290985,3.7936478 0 0 1 -2.553574,-3.55329"
           sodipodi:ry="3.7936478"
           sodipodi:rx="2.5290985"
           sodipodi:cy="11.36045"
           sodipodi:cx="16.630739"
           id="path3011"
           style="fill:#000000;fill-opacity:1;stroke:none"
           sodipodi:type="arc" />
      </g>
    </g>
  </g>
</svg>
