<?xml version="1.0" encoding="UTF-8" standalone="no"?>
<!-- Created with Inkscape (http://www.inkscape.org/) -->

<svg
   xmlns:dc="http://purl.org/dc/elements/1.1/"
   xmlns:cc="http://creativecommons.org/ns#"
   xmlns:rdf="http://www.w3.org/1999/02/22-rdf-syntax-ns#"
   xmlns:svg="http://www.w3.org/2000/svg"
   xmlns="http://www.w3.org/2000/svg"
   xmlns:sodipodi="http://sodipodi.sourceforge.net/DTD/sodipodi-0.dtd"
   xmlns:inkscape="http://www.inkscape.org/namespaces/inkscape"
   width="36"
   height="72"
   id="svg3026"
   version="1.1"
   inkscape:version="0.48.4 r9939"
   sodipodi:docname="Novo documento 4">
  <defs
     id="defs3028" />
  <sodipodi:namedview
     id="base"
     pagecolor="#ffffff"
     bordercolor="#666666"
     borderopacity="1.0"
     inkscape:pageopacity="0.0"
     inkscape:pageshadow="2"
     inkscape:zoom="7.5203595"
     inkscape:cx="12.203342"
     inkscape:cy="44.142089"
     inkscape:document-units="px"
     inkscape:current-layer="layer1"
     showgrid="false"
     inkscape:window-width="1680"
     inkscape:window-height="993"
     inkscape:window-x="0"
     inkscape:window-y="0"
     inkscape:window-maximized="1" />
  <metadata
     id="metadata3031">
    <rdf:RDF>
      <cc:Work
         rdf:about="">
        <dc:format>image/svg+xml</dc:format>
        <dc:type
           rdf:resource="http://purl.org/dc/dcmitype/StillImage" />
        <dc:title></dc:title>
      </cc:Work>
    </rdf:RDF>
  </metadata>
  <g
     inkscape:label="Camada 1"
     inkscape:groupmode="layer"
     id="layer1"
     transform="translate(0,-980.36218)">
    <g
       id="g3115">
      <g
         style="fill:#ff7f2a"
         transform="matrix(1.2501243,0,0,1.5056452,-4.5238235,-520.64279)"
         id="g3060">
        <path
           sodipodi:type="arc"
           style="fill:#ff7f2a;fill-opacity:1;stroke:none"
           id="path3056"
           sodipodi:cx="15.491281"
           sodipodi:cy="61.561668"
           sodipodi:rx="0.99729276"
           sodipodi:ry="2.0610716"
           d="m 14.504205,61.267395 c 0.07864,-1.126636 0.584319,-1.908205 1.129466,-1.745682 0.545146,0.162522 0.923325,1.207592 0.844685,2.334228 -0.07864,1.126637 -0.584319,1.908206 -1.129466,1.745683 -0.467108,-0.139257 -0.823034,-0.936117 -0.852903,-1.909511"
           transform="translate(0,980.36218)"
           sodipodi:start="3.2848589"
           sodipodi:end="9.3614459"
           sodipodi:open="true" />
        <path
           sodipodi:type="arc"
           style="fill:#ff7f2a;fill-opacity:1;stroke:none"
           id="path3058"
           sodipodi:cx="14.759933"
           sodipodi:cy="63.622742"
           sodipodi:rx="2.526475"
           sodipodi:ry="1.3297237"
           d="m 12.259342,63.432888 c 0.199221,-0.726862 1.480275,-1.2311 2.861313,-1.126247 1.381038,0.104853 2.339091,0.779092 2.13987,1.505954 -0.199222,0.726862 -1.480275,1.231101 -2.861313,1.126247 -1.18334,-0.08984 -2.08502,-0.603947 -2.160688,-1.231942"
           transform="translate(0.66486184,979.69732)"
           sodipodi:start="3.2848589"
           sodipodi:end="9.3614459"
           sodipodi:open="true" />
      </g>
      <g
         style="fill:#ff7f2a"
         id="g3064"
         transform="matrix(1.2501243,0,0,1.5056452,2.2916879,-520.64279)">
        <path
           sodipodi:open="true"
           sodipodi:end="9.3614459"
           sodipodi:start="3.2848589"
           transform="translate(0,980.36218)"
           d="m 14.504205,61.267395 c 0.07864,-1.126636 0.584319,-1.908205 1.129466,-1.745682 0.545146,0.162522 0.923325,1.207592 0.844685,2.334228 -0.07864,1.126637 -0.584319,1.908206 -1.129466,1.745683 -0.467108,-0.139257 -0.823034,-0.936117 -0.852903,-1.909511"
           sodipodi:ry="2.0610716"
           sodipodi:rx="0.99729276"
           sodipodi:cy="61.561668"
           sodipodi:cx="15.491281"
           id="path3066"
           style="fill:#ff7f2a;fill-opacity:1;stroke:none"
           sodipodi:type="arc" />
        <path
           sodipodi:open="true"
           sodipodi:end="9.3614459"
           sodipodi:start="3.2848589"
           transform="translate(0.66486184,979.69732)"
           d="m 12.259342,63.432888 c 0.199221,-0.726862 1.480275,-1.2311 2.861313,-1.126247 1.381038,0.104853 2.339091,0.779092 2.13987,1.505954 -0.199222,0.726862 -1.480275,1.231101 -2.861313,1.126247 -1.18334,-0.08984 -2.08502,-0.603947 -2.160688,-1.231942"
           sodipodi:ry="1.3297237"
           sodipodi:rx="2.526475"
           sodipodi:cy="63.622742"
           sodipodi:cx="14.759933"
           id="path3068"
           style="fill:#ff7f2a;fill-opacity:1;stroke:none"
           sodipodi:type="arc" />
      </g>
      <path
         sodipodi:open="true"
         sodipodi:end="9.3614459"
         sodipodi:start="3.2848589"
         transform="matrix(1.2501243,0,0,1.5056452,-3.8588956,957.43691)"
         d="m 13.472913,20.699416 a 4.1847229,6.2284245 0 1 1 -0.03448,1.283469"
         sodipodi:ry="6.2284245"
         sodipodi:rx="4.1847229"
         sodipodi:cy="21.58869"
         sodipodi:cx="17.614763"
         id="path3034"
         style="fill:#1a1a1a;fill-opacity:1;stroke:none"
         sodipodi:type="arc" />
      <g
         id="g3105">
        <path
           sodipodi:type="arc"
           style="fill:#4d4d4d;fill-opacity:1;stroke:none"
           id="path3043"
           sodipodi:cx="7.6459112"
           sodipodi:cy="37.959076"
           sodipodi:rx="4.5875468"
           sodipodi:ry="1.1967514"
           d="m 3.1053641,37.788208 a 4.5875468,1.1967514 0 1 1 -0.037803,0.24661"
           transform="matrix(1.2501243,-1.1357543,0,1.5056452,-3.6926635,964.12427)"
           sodipodi:start="3.2848589"
           sodipodi:end="9.3614459"
           sodipodi:open="true" />
        <path
           sodipodi:open="true"
           sodipodi:end="9.3614459"
           sodipodi:start="3.2848589"
           transform="matrix(0.66986998,-0.50580262,0,0.67053172,-1.9126976,994.06608)"
           d="m 3.1053641,37.788208 a 4.5875468,1.1967514 0 1 1 -0.037803,0.24661"
           sodipodi:ry="1.1967514"
           sodipodi:rx="4.5875468"
           sodipodi:cy="37.959076"
           sodipodi:cx="7.6459112"
           id="path3103"
           style="fill:#e6e6e6;fill-opacity:1;stroke:none"
           sodipodi:type="arc" />
      </g>
      <g
         transform="matrix(-0.99999429,-0.00337804,-0.00337804,0.99999429,39.764372,-0.77222164)"
         id="g3109">
        <path
           sodipodi:open="true"
           sodipodi:end="9.3614459"
           sodipodi:start="3.2848589"
           transform="matrix(1.2501243,-1.1357543,0,1.5056452,-3.6926635,964.12427)"
           d="m 3.1053641,37.788208 c 0.3617435,-0.654176 2.6878668,-1.107991 5.1955417,-1.013623 2.5076752,0.09437 4.2472962,0.701183 3.8855522,1.355359 -0.361743,0.654176 -2.6878664,1.10799 -5.1955414,1.013622 -2.1486967,-0.08086 -3.785957,-0.543552 -3.9233551,-1.108748"
           sodipodi:ry="1.1967514"
           sodipodi:rx="4.5875468"
           sodipodi:cy="37.959076"
           sodipodi:cx="7.6459112"
           id="path3111"
           style="fill:#4d4d4d;fill-opacity:1;stroke:none"
           sodipodi:type="arc" />
        <path
           sodipodi:type="arc"
           style="fill:#e6e6e6;fill-opacity:1;stroke:none"
           id="path3113"
           sodipodi:cx="7.6459112"
           sodipodi:cy="37.959076"
           sodipodi:rx="4.5875468"
           sodipodi:ry="1.1967514"
           d="m 3.1053641,37.788208 c 0.3617435,-0.654176 2.6878668,-1.107991 5.1955417,-1.013623 2.5076752,0.09437 4.2472962,0.701183 3.8855522,1.355359 -0.361743,0.654176 -2.6878664,1.10799 -5.1955414,1.013622 -2.1486967,-0.08086 -3.785957,-0.543552 -3.9233551,-1.108748"
           transform="matrix(0.66986998,-0.50580262,0,0.67053172,-1.9126976,994.06608)"
           sodipodi:start="3.2848589"
           sodipodi:end="9.3614459"
           sodipodi:open="true" />
      </g>
      <path
         sodipodi:open="true"
         sodipodi:end="9.3614459"
         sodipodi:start="3.2848589"
         transform="matrix(1.2501243,0,0,1.5056452,-3.6926636,957.63712)"
         d="m 8.0750661,35.224847 a 9.4410381,14.959392 0 1 1 -0.077797,3.082628"
         sodipodi:ry="14.959392"
         sodipodi:rx="9.4410381"
         sodipodi:cy="37.360699"
         sodipodi:cx="17.41938"
         id="path3036"
         style="fill:#1a1a1a;fill-opacity:1;stroke:none"
         sodipodi:type="arc" />
      <path
         sodipodi:nodetypes="ccccc"
         inkscape:connector-curvature="0"
         id="rect3040"
         d="m 14.094158,1028.6045 8.3116,-0.4005 4.322033,19.2201 -16.456968,0 z"
         style="fill:#1a1a1a;fill-opacity:1;stroke:none" />
      <path
         sodipodi:type="arc"
         style="fill:#ececec;fill-opacity:1;stroke:none"
         id="path3099"
         sodipodi:cx="17.614763"
         sodipodi:cy="21.58869"
         sodipodi:rx="4.1847229"
         sodipodi:ry="6.2284245"
         d="m 13.472913,20.699416 a 4.1847229,6.2284245 0 1 1 -0.03448,1.283469"
         transform="matrix(0.20054287,0,0,0.57707145,10.644748,977.01819)"
         sodipodi:start="3.2848589"
         sodipodi:end="9.3614459"
         sodipodi:open="true" />
      <path
         sodipodi:open="true"
         sodipodi:end="9.3614459"
         sodipodi:start="3.2848589"
         transform="matrix(0.20054287,0,0,0.57707145,18.62309,977.01819)"
         d="m 13.472913,20.699416 a 4.1847229,6.2284245 0 1 1 -0.03448,1.283469"
         sodipodi:ry="6.2284245"
         sodipodi:rx="4.1847229"
         sodipodi:cy="21.58869"
         sodipodi:cx="17.614763"
         id="path3101"
         style="fill:#ececec;fill-opacity:1;stroke:none"
         sodipodi:type="arc" />
    </g>
  </g>
</svg>
