<?xml version="1.0" encoding="UTF-8" standalone="no"?>
<!-- Created with Inkscape (http://www.inkscape.org/) -->

<svg
   xmlns:dc="http://purl.org/dc/elements/1.1/"
   xmlns:cc="http://creativecommons.org/ns#"
   xmlns:rdf="http://www.w3.org/1999/02/22-rdf-syntax-ns#"
   xmlns:svg="http://www.w3.org/2000/svg"
   xmlns="http://www.w3.org/2000/svg"
   xmlns:sodipodi="http://sodipodi.sourceforge.net/DTD/sodipodi-0.dtd"
   xmlns:inkscape="http://www.inkscape.org/namespaces/inkscape"
   width="32px"
   height="32px"
   id="svg2985"
   version="1.1"
   inkscape:version="0.48.4 r9939"
   sodipodi:docname="Novo documento 2">
  <defs
     id="defs2987" />
  <sodipodi:namedview
     id="base"
     pagecolor="#ffffff"
     bordercolor="#666666"
     borderopacity="1.0"
     inkscape:pageopacity="0.0"
     inkscape:pageshadow="2"
     inkscape:zoom="11.197802"
     inkscape:cx="-2.6643772"
     inkscape:cy="17.339549"
     inkscape:current-layer="layer1"
     showgrid="true"
     inkscape:grid-bbox="true"
     inkscape:document-units="px"
     inkscape:window-width="1680"
     inkscape:window-height="993"
     inkscape:window-x="0"
     inkscape:window-y="0"
     inkscape:window-maximized="1" />
  <metadata
     id="metadata2990">
    <rdf:RDF>
      <cc:Work
         rdf:about="">
        <dc:format>image/svg+xml</dc:format>
        <dc:type
           rdf:resource="http://purl.org/dc/dcmitype/StillImage" />
        <dc:title></dc:title>
      </cc:Work>
    </rdf:RDF>
  </metadata>
  <g
     id="layer1"
     inkscape:label="Layer 1"
     inkscape:groupmode="layer">
    <g
       id="g3795">
      <path
         d="m 29.023553,16.684494 a 13.082925,12.011286 0 1 1 -26.1658498,0 13.082925,12.011286 0 1 1 26.1658498,0 z"
         sodipodi:ry="12.011286"
         sodipodi:rx="13.082925"
         sodipodi:cy="16.684494"
         sodipodi:cx="15.940628"
         id="path2993"
         style="fill:#ff7f2a"
         sodipodi:type="arc" />
      <path
         transform="matrix(0.27303756,0,0,0.24907063,5.5602693,9.7604761)"
         sodipodi:type="arc"
         style="fill:#ffffff"
         id="path2995"
         sodipodi:cx="15.940628"
         sodipodi:cy="16.684494"
         sodipodi:rx="13.082925"
         sodipodi:ry="12.011286"
         d="m 29.023553,16.684494 a 13.082925,12.011286 0 1 1 -26.1658498,0 13.082925,12.011286 0 1 1 26.1658498,0 z" />
      <path
         d="m 29.023553,16.684494 a 13.082925,12.011286 0 1 1 -26.1658498,0 13.082925,12.011286 0 1 1 26.1658498,0 z"
         sodipodi:ry="12.011286"
         sodipodi:rx="13.082925"
         sodipodi:cy="16.684494"
         sodipodi:cx="15.940628"
         id="path2997"
         style="fill:#000000"
         sodipodi:type="arc"
         transform="matrix(0.07167237,0,0,0.08550186,10.154357,12.132325)" />
      <path
         d="m 29.023553,16.684494 a 13.082925,12.011286 0 1 1 -26.1658498,0 13.082925,12.011286 0 1 1 26.1658498,0 z"
         sodipodi:ry="12.011286"
         sodipodi:rx="13.082925"
         sodipodi:cy="16.684494"
         sodipodi:cx="15.940628"
         id="path2999"
         style="fill:#ffffff"
         sodipodi:type="arc"
         transform="matrix(0.27303756,0,0,0.24907063,17.4376,9.7604761)" />
      <path
         transform="matrix(0.07167237,0,0,0.08550186,19.352591,13.293267)"
         sodipodi:type="arc"
         style="fill:#000000"
         id="path3001"
         sodipodi:cx="15.940628"
         sodipodi:cy="16.684494"
         sodipodi:rx="13.082925"
         sodipodi:ry="12.011286"
         d="m 29.023553,16.684494 a 13.082925,12.011286 0 1 1 -26.1658498,0 13.082925,12.011286 0 1 1 26.1658498,0 z" />
      <path
         transform="matrix(0.32081912,0,0,0.23048327,10.603312,19.492089)"
         sodipodi:type="arc"
         style="fill:#2b0000"
         id="path3003"
         sodipodi:cx="15.940628"
         sodipodi:cy="16.684494"
         sodipodi:rx="13.082925"
         sodipodi:ry="12.011286"
         d="m 29.023553,16.684494 a 13.082925,12.011286 0 1 1 -26.1658498,0 13.082925,12.011286 0 1 1 26.1658498,0 z" />
      <path
         d="m 29.023553,16.684494 a 13.082925,12.011286 0 1 1 -26.1658498,0 13.082925,12.011286 0 1 1 26.1658498,0 z"
         sodipodi:ry="12.011286"
         sodipodi:rx="13.082925"
         sodipodi:cy="16.684494"
         sodipodi:cx="15.940628"
         id="path3005"
         style="fill:#f9f9f9"
         sodipodi:type="arc"
         transform="matrix(0.2559727,0,0,0.11524163,11.592352,20.030637)" />
      <path
         inkscape:transform-center-y="-1.9358642"
         transform="matrix(0.22184301,0,0,0.08921933,12.136402,23.545768)"
         sodipodi:type="arc"
         style="fill:#800000"
         id="path3007"
         sodipodi:cx="15.940628"
         sodipodi:cy="16.684494"
         sodipodi:rx="13.082925"
         sodipodi:ry="12.011286"
         d="m 29.023553,16.684494 a 13.082925,12.011286 0 1 1 -26.1658498,0 13.082925,12.011286 0 1 1 26.1658498,0 z" />
      <rect
         y="9.6741896"
         x="6.2512269"
         height="7.501472"
         width="7.8586855"
         id="rect3009"
         style="opacity:0.37241378;fill:#00ffff" />
      <rect
         style="opacity:0.37241378;fill:#00ffff"
         id="rect3787"
         width="7.8586855"
         height="7.501472"
         x="17.860647"
         y="9.6741896" />
      <rect
         y="13.782139"
         x="14.020609"
         height="0.80372918"
         width="3.8400395"
         id="rect3789"
         style="opacity:0.98275862;fill:#483737" />
      <rect
         style="opacity:0.98275865;fill:#483737"
         id="rect3791"
         width="3.8400395"
         height="0.80372918"
         x="25.808636"
         y="12.97841" />
      <rect
         y="12.97841"
         x="2.50049"
         height="0.80372918"
         width="3.8400395"
         id="rect3793"
         style="opacity:0.98275865;fill:#483737" />
    </g>
  </g>
</svg>
